<?xml version="1.0" encoding="UTF-8" standalone="no"?>
<!-- Created with Inkscape (http://www.inkscape.org/) -->

<svg
   xmlns:dc="http://purl.org/dc/elements/1.1/"
   xmlns:cc="http://creativecommons.org/ns#"
   xmlns:rdf="http://www.w3.org/1999/02/22-rdf-syntax-ns#"
   xmlns:svg="http://www.w3.org/2000/svg"
   xmlns="http://www.w3.org/2000/svg"
   xmlns:sodipodi="http://sodipodi.sourceforge.net/DTD/sodipodi-0.dtd"
   xmlns:inkscape="http://www.inkscape.org/namespaces/inkscape"
   width="850"
   height="300"
   id="svg3568"
   version="1.1"
   inkscape:version="0.48.4 r9939"
   sodipodi:docname="($x.xx)($y.y)z.pdf">
  <defs
     id="defs3570" />
  <sodipodi:namedview
     id="base"
     pagecolor="#ffffff"
     bordercolor="#666666"
     borderopacity="1.0"
     inkscape:pageopacity="0.0"
     inkscape:pageshadow="2"
     inkscape:zoom="0.70710678"
     inkscape:cx="170.17842"
     inkscape:cy="165.06854"
     inkscape:document-units="px"
     inkscape:current-layer="layer1"
     showgrid="false"
     width="850px"
     inkscape:window-width="1879"
     inkscape:window-height="1058"
     inkscape:window-x="41"
     inkscape:window-y="0"
     inkscape:window-maximized="1" />
  <metadata
     id="metadata3573">
    <rdf:RDF>
      <cc:Work
         rdf:about="">
        <dc:format>image/svg+xml</dc:format>
        <dc:type
           rdf:resource="http://purl.org/dc/dcmitype/StillImage" />
        <dc:title></dc:title>
      </cc:Work>
    </rdf:RDF>
  </metadata>
  <g
     inkscape:label="Ebene 1"
     inkscape:groupmode="layer"
     id="layer1"
     transform="translate(0,-752.36212)">
    <path
       inkscape:connector-curvature="0"
       d="m 195.42562,812.81727 c -1.94946,-3.40942 -3.6267,-5.19104 -5.47485,-5.4126 -1.87439,-0.2246 -3.51624,1.06446 -5.34301,3.80189 -0.69214,-0.0263 -1.38916,-0.0379 -2.09108,-0.0385 -1.79198,-3.56873 -3.36363,-5.39063 -5.32165,-5.401 0,0 -0.005,0 -0.005,0 -2.06358,-0.01 -3.96483,2.09594 -6.44408,6.40014 -0.39368,0.0635 -0.78858,0.13001 -1.18408,0.19897 -3.09021,-3.5852 -5.28382,-5.2362 -7.25158,-4.90295 -2.17774,0.36865 -3.45033,2.88391 -4.66737,7.60925 0,0 0.19104,0.0482 0.19104,0.0482 -0.41321,0.11963 -0.82641,0.24169 -1.2384,0.3662 0,0 0.3064,-0.27344 0.3064,-0.27344 -2.71668,-3.06273 -4.81324,-4.39025 -6.84388,-3.78966 -2.6593,0.78491 -4.48791,5.46996 -4.78882,7.96935 -0.58899,0.22766 -1.17736,0.45778 -1.76148,0.69154 0,0 -0.96007,-0.47303 -0.96007,-0.47303 -3.396,-2.27478 -5.7489,-3.07495 -7.53785,-2.23877 -1.37268,1.25916 -2.29248,3.96972 -2.90161,7.67151 -1.81274,0.85083 -4.69177,-5.9198 -9.07654,-3.51196 -1.88171,1.03332 -2.59583,4.0509 -2.84973,9.52026 0,0 0.0125,6.1e-4 0.0125,6.1e-4 -0.0495,0.0256 -0.0989,0.0525 -0.14831,0.0794 -4.17297,-2.13501 -6.86157,-2.76733 -8.6383,-1.615 -1.71265,1.11145 -2.18689,3.56813 -1.93481,7.62452 -0.15991,0.0952 -0.318,0.19165 -0.47669,0.28626 -4.11377,-2.44263 -6.77369,-3.39295 -8.58887,-2.34193 -1.82617,1.05653 -2.27722,3.7854 -1.92749,8.66944 -0.49439,0.27893 -0.99426,0.55664 -1.49658,0.83251 -3.607782,-2.06298 -6.041872,-2.73376 -7.780762,-1.81151 -1.77307,0.94116 -2.43896,3.24279 -2.48719,7.10815 -0.28381,0.13794 -0.56945,0.27526 -0.8551,0.41321 -3.62853,-2.44385 -6.07666,-3.47656 -7.88635,-2.71546 -1.88721,0.79529 -2.59948,3.18421 -2.65808,7.53785 -0.57434,0.24963 -1.15052,0.49988 -1.72913,0.7489 -4.03259,-2.52686 -6.70592,-3.50709 -8.60351,-2.72095 -2.00013,0.82885 -2.74964,3.22693 -2.84119,7.41638 -0.2362,0.094 -0.4718,0.18616 -0.70801,0.27771 -3.5675,-2.49939 -5.99793,-3.6206 -7.81983,-3.01209 -1.95251,0.65369 -2.76061,2.89185 -2.92785,7.05506 -0.10315,0.0385 -0.20691,0.0751 -0.31006,0.11288 -3.17139,-2.58911 -5.4364,-3.60656 -7.29491,-2.93458 -1.87013,0.67689 -2.89369,2.87782 -3.58399,6.7212 -0.24536,0.0818 -0.49011,0.16297 -0.73425,0.24537 -3.33436,-3.20863 -5.65309,-4.69117 -7.62635,-4.11988 -2.00927,0.58228 -3.0835,3.0725 -3.87572,7.79419 -5.4828,1.67419 -10.70679,3.15979 -15.5066,4.41894 0,0 -0.24414,2.72645 -0.24414,2.72645 27.28027,12.51098 42.79602,11.53442 62.41332,9.55015 4.10584,-0.19774 8.1958,-0.61277 12.26808,-1.19994 6.286,-0.54443 13.163452,-0.96436 20.985102,-0.9552 8.042,0.006 17.16004,0.82398 26.62231,1.66992 36.10597,3.23181 77.09474,6.90002 86.72974,-31.20422 1.31226,-5.18371 1.43739,-10.38146 0.4889,-15.46875 -0.97107,-5.21118 -3.06457,-10.29114 -6.15784,-15.10803 -4.91333,-7.64832 -11.64551,-12.13623 -19.43421,-14.31702 0,0 0,0 0,0 z"
       style="fill:#231f20;fill-opacity:1;fill-rule:nonzero;stroke:none"
       id="path154" />
    <path
       inkscape:connector-curvature="0"
       d="m 89.668778,848.42762 c 0.0928,-1.78222 0.35889,-2.8009 0.89113,-3.08227 0.57311,-0.30395 1.6693,10e-4 3.38439,0.88257 -1.39587,0.73853 -2.82532,1.47155 -4.27552,2.1997 0,0 0,0 0,0 z m -11.41356,5.39551 c 0.0751,-2.18627 0.32409,-3.33985 0.84655,-3.56078 0.58594,-0.24537 1.78468,0.28442 3.6847,1.4917 -1.48987,0.6964 -3.00294,1.38671 -4.53125,2.06908 0,0 0,0 0,0 z m -13.18237,5.57923 c 0.10008,-2.13806 0.39611,-3.31299 1.01317,-3.57118 0.719,-0.29601 2.07581,0.19777 4.21326,1.43128 -1.73156,0.72327 -3.47412,1.43739 -5.22643,2.1399 0,0 0,0 0,0 z m -11.43799,4.4049 c 0.12329,-2.00866 0.39184,-3.04993 0.89721,-3.21838 0.6134,-0.20508 1.79078,0.33387 3.61145,1.52405 -1.50085,0.57373 -3.00599,1.13953 -4.50866,1.69433 0,0 0,0 0,0 z m -10.97169,3.90504 c 0.39246,-1.74195 0.82703,-2.7124 1.40259,-2.92115 0.59144,-0.2124 1.58997,0.24597 3.0896,1.35865 -1.50329,0.53222 -3.0011,1.05163 -4.49219,1.5625 0,0 0,0 0,0 z m -12.29247,4.03076 c 0.47546,-2.54884 0.95092,-3.86353 1.57226,-4.04114 0.63965,-0.18616 1.82922,0.63293 3.69262,2.36084 -1.7749,0.57556 -3.52966,1.13586 -5.26488,1.6803 0,0 0,0 0,0 z m 92.807612,-42.26929 c 0.21362,-3.2666 0.56457,-5.01526 1.24206,-5.38696 0.62013,-0.34058 2.07948,0.52734 4.55445,2.46032 -1.98914,0.97107 -3.92334,1.95008 -5.79651,2.92664 0,0 0,0 0,0 z m -10.87646,5.99793 c -0.0549,-1.9983 0.13671,-3.15553 0.67932,-3.50892 0.59326,-0.38452 1.8634,-0.0733 3.94165,0.88013 -1.61134,0.8966 -3.15491,1.77551 -4.62097,2.62879 0,0 0,0 0,0 z m -11.01745,6.67175 c -0.14954,-2.74293 -0.003,-4.20899 0.57555,-4.54347 0.59387,-0.34301 2.00012,0.21668 4.32983,1.54237 -0.43091,0.26733 -0.85143,0.52978 -1.25976,0.78491 -1.17737,0.74036 -2.39502,1.48071 -3.64562,2.21619 0,0 0,0 0,0 z m 86.69311,-30.70679 c 0.65429,-0.81543 1.18652,-1.20118 1.63512,-1.14746 0.52308,0.0629 1.1261,0.60302 1.8573,1.63025 -1.14685,-0.20447 -2.31262,-0.36255 -3.49242,-0.48279 0,0 0,0 0,0 z m -13.55653,0.2179 c 1.24818,-2.00563 2.12098,-2.99134 2.76368,-2.98768 0,0 -0.005,0 -0.005,0 0.55846,0.002 1.23717,0.87219 2.1405,2.57813 -1.6156,0.0788 -3.25074,0.2179 -4.89869,0.40955 0,0 0,0 0,0 z m -25.86852,6.50695 c 0.86609,-2.43469 1.58935,-3.73351 2.3236,-3.94959 0.6305,-0.18554 1.62171,0.52858 3.09326,2.09229 -1.81274,0.5835 -3.62121,1.20545 -5.41686,1.8573 0,0 0,0 0,0 z m 12.31445,-3.87878 c 0.71227,-2.51892 1.297,-3.83606 1.92687,-3.94226 0.66224,-0.11175 1.76514,0.77454 3.47108,2.66174 -1.79199,0.3772 -3.59558,0.80627 -5.39795,1.28052 0,0 0,0 0,0 z m -25.81299,9.40185 c 0.22461,-2.17712 0.578,-3.39172 1.18225,-3.67431 0.63843,-0.29846 1.87928,0.20324 3.8678,1.4685 -1.70532,0.71778 -3.39111,1.45508 -5.05005,2.20581 0,0 0,0 0,0 z"
       style="fill:#ffcc00;fill-opacity:1;fill-rule:nonzero;stroke:none"
       id="path156" />
    <path
       inkscape:connector-curvature="0"
       d="m 185.5361,814.17165 c 0,0 0.47607,0.27648 0.47607,0.27648 0.047,-0.0806 0.0946,-0.15808 0.13855,-0.23621 2.53724,0.17823 4.99573,0.54566 7.35291,1.12915 0.0561,0.10563 0.11288,0.2118 0.16968,0.32044 0,0 0.35217,-0.18615 0.35217,-0.18615 7.42004,1.95067 13.8031,6.08215 18.38867,13.22144 2.89733,4.51293 4.85352,9.24498 5.75317,14.07226 0.87036,4.67346 0.75256,9.45495 -0.45349,14.23279 -1.01135,3.99597 -2.40783,7.49695 -4.13635,10.56578 -24.62036,-11.95738 -52.30041,-3.27697 -81.69738,5.94239 -15.00671,4.70581 -30.4657,9.55445 -46.127942,11.80848 -3.37158,0.29296 -6.56371,0.61828 -9.64111,0.93383 -0.77393,0.0787 -1.53869,0.15687 -2.29737,0.23438 -0.76903,0.0366 -1.53808,0.0678 -2.30651,0.0885 0,0 0.003,0.1416 0.003,0.1416 -17.28516,1.68945 -31.70532,2.17041 -55.04822,-7.85218 14.47693,-3.97643 32.07825,-9.7345 48.96302,-16.47826 15.16906,-6.05652 29.773552,-12.91382 41.046142,-19.9994 14.06555,-8.84032 42.68615,-24.70275 67.79785,-27.78381 2.17774,-0.26733 4.328,-0.4364 6.43921,-0.49683 0.008,0.0182 0.014,0.0348 0.0226,0.0525 0,0 0.12387,-0.0555 0.12387,-0.0555 1.58508,-0.0421 3.14635,-0.0208 4.68139,0.0684 0,0 0,0 0,0 z"
       style="fill:#ffcc00;fill-opacity:1;fill-rule:nonzero;stroke:none"
       id="path158" />
    <path
       inkscape:connector-curvature="0"
       d="m 133.51096,876.04298 c 0.44372,1.50818 1.22375,3.64929 2.18261,5.68115 0.57984,1.23474 1.73156,3.12195 2.82715,4.6991 -1.49414,-0.13001 -2.98462,-0.26428 -4.46472,-0.39551 -9.51478,-0.85327 -18.68592,-1.67297 -26.88599,-1.68212 -0.66773,0 -1.32995,0.002 -1.98425,0.009 9.32067,-2.3529 18.52051,-5.23743 27.55676,-8.07068 0.25635,-0.0817 0.51148,-0.16114 0.76844,-0.24109 0,0 0,0 0,0 z"
       style="fill:#ffe680;fill-opacity:1;fill-rule:nonzero;stroke:none"
       id="path160" />
    <path
       inkscape:connector-curvature="0"
       d="m 146.1611,872.14711 c 0.50171,2.29859 1.35865,4.83642 2.45972,7.19726 1.09009,2.34009 3.31359,5.94849 5.17821,8.21411 -4.45251,-0.23986 -8.93432,-0.58898 -13.37585,-0.97106 -1.19323,-1.59302 -2.74108,-4.04114 -3.41796,-5.48035 -0.94482,-2.00927 -1.70777,-4.09424 -2.11731,-5.49621 3.79027,-1.18714 7.54944,-2.35658 11.27319,-3.46375 0,0 0,0 0,0 z"
       style="fill:#ffe680;fill-opacity:1;fill-rule:nonzero;stroke:none"
       id="path162" />
    <path
       inkscape:connector-curvature="0"
       d="m 162.71322,867.72755 c 0.38696,2.7826 1.38428,5.80322 2.56714,8.61511 1.67847,3.98682 4.29566,8.7555 5.87891,11.41114 -4.97559,0.21972 -10.12085,0.14526 -15.31861,-0.094 -1.83654,-1.7981 -4.66735,-6.27992 -5.90149,-8.92823 -1.07421,-2.3053 -1.90735,-4.77966 -2.37976,-6.9989 5.12207,-1.50207 10.17701,-2.87537 15.15381,-4.00514 0,0 0,0 0,0 z"
       style="fill:#ffe680;fill-opacity:1;fill-rule:nonzero;stroke:none"
       id="path164" />
    <path
       inkscape:connector-curvature="0"
       d="m 187.99703,885.53151 c -1.156,-1.18225 -3.58276,-5.26184 -5.61035,-10.24414 -1.32873,-3.26111 -2.44262,-6.88294 -2.85705,-10.30151 11.39893,-0.98389 22.28454,0.18126 32.50672,5.07506 -5.6482,8.3429 -14.08632,13.02064 -24.03932,15.47059 0,0 0,0 0,0 z"
       style="fill:#ffe680;fill-opacity:1;fill-rule:nonzero;stroke:none"
       id="path166" />
    <path
       inkscape:connector-curvature="0"
       d="m 178.07943,865.12075 c 0.42787,3.57116 1.58448,7.33458 2.9602,10.71471 1.77369,4.35486 3.97889,8.11096 5.49378,10.03845 -4.38049,0.96925 -9.03748,1.53199 -13.8623,1.80481 -1.25549,-2.08922 -4.18945,-7.47864 -6.05041,-11.8988 -1.15784,-2.75207 -2.1283,-5.69641 -2.4823,-8.36975 4.72167,-1.02784 9.37072,-1.82556 13.94103,-2.28942 0,0 0,0 0,0 z"
       style="fill:#ffe680;fill-opacity:1;fill-rule:nonzero;stroke:none"
       id="path168" />
    <path
       inkscape:connector-curvature="0"
       d="m 151.74765,855.09572 c 2.13683,12.12219 -9.87183,24.27734 -9.5636,35.62621 3.48755,0.18738 6.15967,-2.3053 7.01355,-2.45605 -0.5835,0.1025 -1.18774,3.06153 -1.52222,6.39588 2.60682,-0.28015 5.51575,-3.3014 6.15662,-3.41431 0.20386,1.92077 -0.70008,4.79553 -0.48035,5.65368 20.94848,-9.7998 31.13708,-32.38281 30.62561,-39.65637 0,0 -32.22961,-2.14904 -32.22961,-2.14904 0,0 0,0 0,0 z"
       style="fill:#ffcc00;fill-opacity:1;fill-rule:evenodd;stroke:none"
       id="path170" />
    <path
       inkscape:connector-curvature="0"
       d="m 163.37912,888.85915 c -3.58582,-0.71717 -7.06177,-1.96168 -10.11841,-3.85072 -2.5409,-1.56677 -4.79493,-3.58032 -6.5802,-6.10351 0.51575,-1.19507 1.06445,-2.40051 1.61499,-3.6084 4.469,-9.8175 6.87012,-15.64514 2.75391,-25.62744 0.66589,7.06848 -0.3296,14.13697 -5.39979,24.42444 -2.55676,5.61463 -5.07262,11.14075 -4.92309,16.67053 0,0 0.0373,1.33545 0.0373,1.33545 2.1399,0.11475 3.88307,0.0537 5.90515,-0.85877 -0.29175,1.67603 -0.448,3.36732 -0.61828,5.06043 2.03613,-0.32104 3.16772,-0.77393 6.11085,-2.10144 -0.28383,1.7688 -0.22828,3.00781 0.21972,4.76013 9.13635,-4.27429 16.474,-9.97742 22.65075,-17.97485 7.3584,-9.52942 11.04188,-17.77954 9.80469,-29.41589 -1.9934,9.3573 -3.82263,17.70264 -12.10388,27.64221 -2.60437,3.37036 -5.72143,6.68579 -9.35363,9.64783 0,0 0,0 0,0 z"
       style="fill:#000000;fill-opacity:1;fill-rule:nonzero;stroke:none"
       id="path172" />
    <path
       inkscape:connector-curvature="0"
       d="m 145.71432,881.24012 c 1.81763,2.27845 3.99353,4.13636 6.40015,5.62195 2.76855,1.7096 5.84229,2.92725 9.02526,3.7262 0,0 -6.07543,3.82935 -6.07543,3.82935 0,0 0.0489,-4.87794 0.0489,-4.87794 0,0 -5.70739,2.96937 -5.70739,2.96937 0,0 -0.45532,-5.68177 -0.45532,-5.68177 0,0 -5.27283,2.33887 -5.27283,2.33887 0,0 2.03674,-7.92603 2.03674,-7.92603 0,0 0,0 0,0 z"
       style="fill:#ffe680;fill-opacity:1;fill-rule:nonzero;stroke:none"
       id="path174" />
    <path
       inkscape:connector-curvature="0"
       d="m 78.376058,865.71645 c 0.31922,12.30407 -13.35998,22.54577 -14.73633,33.81408 3.42042,0.70252 6.43373,-1.36597 7.2992,-1.38793 -0.59203,0.0146 -1.62658,2.85095 -2.453,6.09923 2.62024,0.10925 5.94543,-2.44812 6.59424,-2.46398 -0.0824,1.92932 -1.40259,4.63806 -1.31226,5.51941 22.169192,-6.5857 35.593262,-27.41089 36.165162,-34.67958 0,0 -31.557012,-6.90123 -31.557012,-6.90123 0,0 0,0 0,0 z"
       style="fill:#ffcc00;fill-opacity:1;fill-rule:evenodd;stroke:none"
       id="path176" />
    <path
       inkscape:connector-curvature="0"
       d="m 84.875698,900.83058 c -3.43994,-1.24085 -6.69129,-2.98767 -9.43543,-5.30701 -2.28027,-1.9281 -4.21142,-4.25231 -5.60364,-7.01171 0.68909,-1.10719 1.41053,-2.21498 2.13258,-3.32948 5.87585,-9.04601 9.11255,-14.45373 6.52282,-24.93713 -0.39001,7.08985 -2.42066,13.93311 -8.96057,23.3545 -3.36181,5.17456 -6.66809,10.26672 -7.33825,15.75745 0,0 -0.16175,1.3269 -0.16175,1.3269 2.099,0.42968 3.83179,0.62622 5.9668,0.0263 -0.53589,1.61376 -0.943,3.26232 -1.3623,4.91088 2.06176,-0.0146 3.24829,-0.2948 6.35559,-1.17005 -0.5426,1.70472 -0.67139,2.94007 -0.48768,4.73755 9.66798,-2.87231 17.76916,-7.42492 25.064092,-14.41955 8.69019,-8.33252 13.5553,-15.94543 14.05517,-27.63795 -3.35876,8.96058 -6.40258,16.94214 -16.06628,25.54505 -3.074952,2.94739 -6.649782,5.76355 -10.681152,8.1543 0,0 0,0 0,0 z"
       style="fill:#231f20;fill-opacity:1;fill-rule:nonzero;stroke:none"
       id="path178" />
    <path
       inkscape:connector-curvature="0"
       d="m 68.535968,890.678 c 1.45996,2.52257 3.33741,4.682 5.49561,6.50695 2.48597,2.10205 5.34485,3.7616 8.37464,5.02381 0,0 -6.57654,2.88696 -6.57654,2.88696 0,0 0.77087,-4.8169 0.77087,-4.8169 0,0 -6.08337,2.09045 -6.08337,2.09045 0,0 0.39123,-5.68664 0.39123,-5.68664 0,0 -5.5603,1.53259 -5.5603,1.53259 0,0 3.18786,-7.53722 3.18786,-7.53722 0,0 0,0 0,0 z"
       style="fill:#ffe680;fill-opacity:1;fill-rule:nonzero;stroke:none"
       id="path180" />
    <path
       inkscape:connector-curvature="0"
       d="m 242.67905,843.19203 c 1.52038,1.7102 3.02185,3.2312 4.28588,4.25659 1.46545,1.18835 2.80152,1.75659 3.85193,1.38489 0,0 0.56946,-0.35584 0.56946,-0.35584 0.64391,-0.62377 1.0376,-1.8457 1.20849,-3.48876 0.14039,-1.33484 0.17151,-3.01148 0.108,-4.89136 0.96924,-0.30213 1.94031,-0.6073 2.91442,-0.9143 0.83253,1.85668 1.67237,3.51622 2.4347,4.7235 1.00037,1.58813 2.06055,2.57812 3.12988,2.63428 0,0 0.67261,-0.11287 0.67261,-0.11287 1.0022,-0.41625 1.9342,-1.86401 2.73499,-3.98438 0.66711,-1.76452 1.33727,-4.12902 1.93847,-6.79565 0.29603,-0.0983 0.58777,-0.19713 0.88257,-0.29662 0.63172,1.27624 1.25306,2.38769 1.8274,3.22631 0.88927,1.29516 1.83166,2.08313 2.80517,2.13318 0,0 0.67505,-0.11113 0.67505,-0.11113 0.91248,-0.38025 1.75415,-1.58447 2.48351,-3.36121 0.56153,-1.36535 1.12549,-3.15003 1.64857,-5.18433 0.60425,-0.2185 1.20483,-0.43945 1.80663,-0.66222 0.83497,1.90612 1.69252,3.65295 2.48842,4.9823 1.08642,1.8164 2.23448,2.9718 3.3728,3.031 0,0 0.67505,-0.11113 0.67505,-0.11113 1.10046,-0.45958 2.14843,-2.24853 3.03893,-4.84436 0.69703,-2.03369 1.38612,-4.66491 1.98182,-7.55431 1.32018,2.28454 2.70752,4.47754 3.94165,6.11632 1.58691,2.1045 3.13903,3.41493 4.42443,3.25013 0,0 0.64027,-0.2362 0.64027,-0.2362 1.08092,-0.69275 1.90735,-2.98829 2.43468,-6.15296 0.40712,-2.45605 0.70557,-5.54809 0.85023,-8.83972 0.47485,-0.25147 0.9497,-0.50232 1.41724,-0.75683 2.32421,-1.26099 4.32556,-2.61048 6.02233,-4.01734 4.24865,-3.52051 6.64429,-7.42798 7.55067,-11.27564 0,0 0.001,0.005 0.001,0.005 0.9253,-3.9209 0.29969,-7.75512 -1.49231,-11.05714 -0.52307,-0.96618 -1.14624,-1.88415 -1.85485,-2.74047 -1.95618,-2.3584 -4.58802,-3.9862 -7.54212,-4.95423 -3.75732,-1.23168 -8.04687,-1.40563 -12.11121,-0.672 -4.0686,0.73548 -7.94921,2.39259 -10.87464,4.8169 -1.93602,1.604 -3.4558,3.54248 -4.35607,5.77454 -0.5664,0.17211 -1.07421,0.33264 -1.64856,0.51209 -9.06555,2.8479 -31.97327,10.04639 -41.32508,4.25536 -7.41576,-5.75256 -15.72754,-7.09716 -23.25072,-5.11596 -4.86634,1.28174 -9.38904,3.95691 -13.10548,7.7301 -3.69995,3.7561 -6.60766,8.59985 -8.26355,14.23401 -3.25866,11.0852 -1.68029,25.24293 8.25379,40.16296 0,0 0.8844,1.32997 0.8844,1.32997 0,0 1.30737,-0.91615 1.30737,-0.91615 6.86402,-4.8114 22.41822,-9.5874 40.29542,-15.07507 0.0885,-0.0269 0.17761,-0.0544 0.26611,-0.0818 0,0 0,0 0,0 z"
       style="fill:#231f20;fill-opacity:1;fill-rule:nonzero;stroke:none"
       id="path182" />
    <path
       inkscape:connector-curvature="0"
       d="m 201.67623,854.91688 c -8.60717,-13.57543 -9.94506,-26.30493 -7.0166,-36.27502 1.50635,-5.12451 4.14002,-9.51965 7.48719,-12.91565 3.32824,-3.37951 7.35961,-5.77088 11.68761,-6.9104 6.65223,-1.7511 14.03627,-0.531 20.6421,4.63867 0,0 0.1361,0.0989 0.1361,0.0989 10.55115,6.58325 34.47754,-0.93383 43.94104,-3.90747 1.08765,-0.34179 2.0105,-0.63233 2.35353,-0.73364 0,0 0.7843,-0.23376 0.7843,-0.23376 0,0 0.2533,-0.77271 0.2533,-0.77271 0.65062,-1.98059 1.94457,-3.70423 3.656,-5.12207 2.49877,-2.07092 5.87218,-3.49487 9.45068,-4.14123 3.58459,-0.6482 7.33582,-0.50538 10.58472,0.55847 2.42492,0.79529 4.56298,2.10144 6.11083,3.97094 0.58717,0.7074 1.0962,1.45814 1.52283,2.24244 1.43494,2.64648 1.93665,5.71838 1.19569,8.85742 0,0 0.003,0.006 0.003,0.006 -0.75807,3.21473 -2.8186,6.52526 -6.5033,9.58008 -1.55213,1.28601 -3.38684,2.5232 -5.52552,3.68347 -0.81115,0.44068 -1.63635,0.87646 -2.47375,1.30676 0,0 -0.50537,-0.0113 -0.50537,-0.0113 -0.002,0.0904 -0.005,0.18128 -0.007,0.27222 -16.82923,8.56018 -38.7268,15.2826 -57.95105,21.18408 -17.07641,5.24232 -32.06299,9.84314 -39.82544,14.62342 0,0 0,0 0,0 z"
       style="fill:#ffcc00;fill-opacity:1;fill-rule:nonzero;stroke:none"
       id="path184" />
    <path
       inkscape:connector-curvature="0"
       d="m 263.05013,836.79798 c -0.44372,1.7566 -0.91186,3.30994 -1.38061,4.5459 -0.24231,0.64332 -0.45287,1.16639 -0.62072,1.54175 -0.0866,-0.17517 -0.20325,-0.38757 -0.35828,-0.63232 -0.64881,-1.03089 -1.36597,-2.43469 -2.08862,-4.01734 1.48071,-0.47362 2.96325,-0.95154 4.44824,-1.43799 0,0 0,0 0,0 z"
       style="fill:#ffffff;fill-opacity:1;fill-rule:nonzero;stroke:none"
       id="path186" />
    <path
       inkscape:connector-curvature="0"
       d="m 273.26132,833.33973 c -0.31372,1.04614 -0.62866,1.96473 -0.93995,2.72034 -0.15014,0.36804 -0.28381,0.68238 -0.39794,0.93445 -0.0292,-0.0538 -0.0659,-0.11225 -0.10862,-0.17334 -0.43945,-0.64087 -0.92224,-1.49292 -1.42273,-2.48413 0.95764,-0.32959 1.91528,-0.66102 2.86927,-0.99732 0,0 0,0 0,0 z"
       style="fill:#ffffff;fill-opacity:1;fill-rule:nonzero;stroke:none"
       id="path188" />
    <path
       inkscape:connector-curvature="0"
       d="m 299.29465,822.66773 c -0.15687,2.49818 -0.40161,4.80835 -0.71717,6.70167 -0.25207,1.51795 -0.49621,2.69836 -0.71472,3.3844 -0.26978,-0.35279 -0.69275,-0.9137 -1.21765,-1.61133 -1.11023,-1.47339 -2.37305,-3.45825 -3.59253,-5.55786 2.13623,-0.94788 4.2218,-1.91895 6.24207,-2.91688 0,0 0,0 0,0 z"
       style="fill:#ffffff;fill-opacity:1;fill-rule:nonzero;stroke:none"
       id="path190" />
    <path
       inkscape:connector-curvature="0"
       d="m 286.72506,828.26893 c -0.45715,1.96717 -0.94543,3.73658 -1.43859,5.1709 -0.35401,1.03149 -0.65919,1.84204 -0.89539,2.35535 -0.13793,-0.25696 -0.32532,-0.60181 -0.57495,-1.01746 -0.69397,-1.16027 -1.46485,-2.73315 -2.23633,-4.48547 1.73401,-0.66223 3.45032,-1.33607 5.14526,-2.02332 0,0 0,0 0,0 z"
       style="fill:#ffffff;fill-opacity:1;fill-rule:nonzero;stroke:none"
       id="path192" />
    <path
       inkscape:connector-curvature="0"
       d="m 249.59738,841.06251 c 0.0269,1.42579 -0.004,2.65442 -0.10312,3.61145 -0.033,0.31067 -0.0641,0.57984 -0.0959,0.80445 -0.116,-0.1294 -0.26733,-0.2832 -0.46936,-0.44678 -0.84472,-0.68482 -1.8628,-1.68275 -2.94922,-2.85278 1.19751,-0.36865 2.40417,-0.74037 3.61756,-1.11634 0,0 0,0 0,0 z"
       style="fill:#ffffff;fill-opacity:1;fill-rule:nonzero;stroke:none"
       id="path194" />
    <path
       inkscape:connector-curvature="0"
       d="m 307.04855,794.59096 c -1.71082,-0.87403 -8.16528,-3.84521 -12.06909,-3.21839 -4.10705,0.65979 -5.32287,5.24903 2.77833,3.57728 0,0 3.98071,-0.82154 3.98071,-0.82154 0,0 5.31005,0.46265 5.31005,0.46265 0,0 0,0 0,0 z"
       style="fill:#231f20;fill-opacity:1;fill-rule:evenodd;stroke:none"
       id="path196" />
    <path
       inkscape:connector-curvature="0"
       d="m 208.37241,803.54115 c -1.45264,2.89185 -2.08985,6.22925 -1.64795,9.66858 1.1792,9.19312 9.63989,15.72815 18.833,14.54773 4.59717,-0.5896 8.52966,-3.00049 11.16455,-6.41235 2.40784,-3.11706 3.7323,-7.07398 3.49244,-11.24085 0,0 -25.42359,-7.44019 -25.42359,-7.44019 0,0 0.58837,3.27943 0.58837,3.27943 0,0 -7.00682,-2.40235 -7.00682,-2.40235 0,0 0,0 0,0 z"
       style="fill:#231f20;fill-opacity:1;fill-rule:nonzero;stroke:none"
       id="path198" />
    <path
       inkscape:connector-curvature="0"
       d="m 236.34116,810.8849 c 0.32409,3.33985 -0.68726,6.53198 -2.60988,9.02038 -1.9989,2.58729 -4.98046,4.41407 -8.46496,4.86207 -6.97021,0.89538 -13.38561,-4.05945 -14.28039,-11.03028 -0.34302,-2.67456 0.17455,-5.26734 1.33728,-7.49756 0,0 4.55932,1.56311 4.55932,1.56311 0,0 -0.49438,-2.75756 -0.49438,-2.75756 0,0 19.95301,5.83984 19.95301,5.83984 0,0 0,0 0,0 z"
       style="fill:#f47216;fill-opacity:1;fill-rule:nonzero;stroke:none"
       id="path200" />
    <path
       inkscape:connector-curvature="0"
       d="m 211.65731,806.01125 c -1.19201,2.33092 -1.71935,5.03051 -1.36169,7.81432 0.94299,7.35046 7.70874,12.5763 15.0592,11.63269 7.11915,-0.91369 12.24426,-7.28698 11.7041,-14.36401 0,0 -20.67077,-6.04919 -20.67077,-6.04919 0,0 0.49438,2.75756 0.49438,2.75756 0,0 -5.22522,-1.79137 -5.22522,-1.79137 0,0 0,0 0,0 z"
       style="fill:#ffffff;fill-opacity:1;fill-rule:evenodd;stroke:none"
       id="path202" />
    <path
       inkscape:connector-curvature="0"
       d="m 228.05807,810.96668 c -0.15136,-1.17797 -0.46509,-2.28881 -0.87524,-3.31053 0,0 -7.34741,-2.14967 -7.34741,-2.14967 -0.63844,1.87257 -1.0669,4.19312 -0.75745,6.61194 0.72998,5.67933 5.18615,9.81506 5.8136,9.73389 0.62928,-0.0805 3.89648,-5.20813 3.1665,-10.88563 0,0 0,0 0,0 z"
       style="fill:#231f20;fill-opacity:1;fill-rule:evenodd;stroke:none"
       id="path204" />
    <path
       inkscape:connector-curvature="0"
       d="m 226.45223,807.99001 c -0.44677,0.71532 -0.65917,1.58264 -0.54321,2.47985 0.26611,2.0697 2.17041,3.54065 4.2389,3.27454 1.89086,-0.24232 3.28003,-1.8518 3.30383,-3.70544 0,0 -6.99952,-2.04895 -6.99952,-2.04895 0,0 0,0 0,0 z"
       style="fill:#ffffff;fill-opacity:1;fill-rule:evenodd;stroke:none"
       id="path206" />
    <path
       inkscape:connector-curvature="0"
       d="m 261.30026,872.08485 c -0.74585,-2.73987 -1.59546,-5.2539 -2.43347,-7.17834 -1.01684,-2.33215 -2.14906,-3.93433 -3.26538,-4.32251 0,0 -0.59876,-0.0855 -0.59876,-0.0855 -1.18346,0.0684 -2.3767,1.2793 -3.49243,3.13537 -0.3534,0.58839 -0.71411,1.25366 -1.07789,1.97021 -0.0817,-0.83251 -0.18127,-1.604 -0.29906,-2.29857 -0.37354,-2.19971 -1.01441,-3.80005 -1.92322,-4.42384 0,0 -0.5603,-0.23986 -0.5603,-0.23986 -1.12733,-0.23865 -2.53968,0.56091 -4.04603,1.97754 -1.14318,1.07482 -2.43164,2.5293 -3.703,4.1095 -3.80066,-3.02247 -7.43102,-7.32849 -11.0968,-11.68092 -2.30591,-2.73437 -4.62402,-5.48461 -7.0398,-7.9895 -4.77355,-4.94567 -8.97093,-7.94433 -12.61779,-9.34692 -3.46375,-1.33361 -6.47217,-1.26953 -9.04175,-0.086 -2.51831,1.16395 -4.53063,3.38867 -6.06628,6.41662 -2.16125,4.25782 -3.39355,10.17457 -3.77808,16.93177 -0.108,1.88721 -0.0842,3.68836 0.0616,5.40588 0.80016,9.39088 5.27037,15.96375 12.18383,20.3418 6.75293,4.27552 15.80688,6.3977 25.9967,6.97754 5.72083,0.32715 11.82007,0.16724 18.078,-0.36621 7.74475,-0.66101 13.25745,0.3888 19.67652,1.60889 5.96191,1.13281 12.68372,2.41088 22.50061,2.67333 8.44177,0.22705 14.10828,-2.08801 16.85914,-5.17943 1.1914,-1.3385 1.86888,-2.82715 2.02452,-4.34937 0.16053,-1.5448 -0.21606,-3.10058 -1.13647,-4.54407 -1.17493,-1.8457 -3.28064,-3.49914 -6.31592,-4.65149 0.0763,-2.28394 0.0299,-4.36279 -0.14831,-6.00891 -0.23071,-2.13013 -0.75745,-3.70361 -1.60584,-4.37316 0,0 -0.54382,-0.27528 -0.54382,-0.27528 -1.2622,-0.35766 -3.05786,0.6659 -4.99878,2.41028 -1.81336,1.62842 -3.92212,3.92395 -5.79041,6.167 -0.036,-0.003 -0.0732,-0.006 -0.11112,-0.009 -0.70497,-2.40052 -1.47767,-4.55994 -2.23328,-6.21215 -0.95215,-2.08192 -2.00684,-3.50159 -3.06336,-3.86842 0,0 -0.59754,-0.0855 -0.59754,-0.0855 -1.20666,0.0696 -2.42554,1.32995 -3.56384,3.2489 -0.72876,1.22803 -1.49718,2.79053 -2.23632,4.47083 -0.59754,-1.9281 -1.23535,-3.67431 -1.8628,-5.08056 -0.98328,-2.2052 -2.07703,-3.71338 -3.16223,-4.0918 0,0 -0.59876,-0.0849 -0.59876,-0.0849 -1.21581,0.0702 -2.45116,1.35925 -3.6029,3.31665 -0.94482,1.60705 -1.95435,3.76281 -2.87841,6.0022 -0.62379,-0.10438 -1.25306,-0.21424 -1.89088,-0.33265 0,0 0,0 0,0 z"
       style="fill:#231f20;fill-opacity:1;fill-rule:nonzero;stroke:none"
       id="path208" />
    <path
       inkscape:connector-curvature="0"
       d="m 219.52413,847.22096 c 2.33948,2.4231 4.62464,5.13427 6.89637,7.82959 5.95703,7.0691 11.82617,14.03503 18.93737,16.24207 14.71193,4.56481 23.7494,5.25634 35.38636,6.14685 3.81469,0.29235 7.91199,0.60546 12.58057,1.08643 5.64818,0.58105 9.13878,2.46398 10.55847,4.69237 0.52368,0.82336 0.74219,1.69739 0.65246,2.5531 -0.0904,0.87891 -0.50537,1.76698 -1.24206,2.59339 -2.20276,2.47741 -7.02149,4.32434 -14.4513,4.12415 -9.66614,-0.25879 -16.203,-1.50148 -22.00439,-2.60499 -6.65832,-1.26525 -12.37671,-2.3529 -20.51758,-1.65894 -6.10229,0.52003 -12.05078,0.67444 -17.63549,0.35707 -9.7046,-0.55359 -18.25501,-2.52869 -24.50989,-6.49048 -6.09497,-3.85865 -10.03662,-9.66492 -10.74525,-17.97241 -0.13184,-1.55518 -0.15136,-3.20801 -0.0525,-4.964 0.36255,-6.35254 1.48743,-11.84875 3.44788,-15.71228 1.21582,-2.39623 2.74292,-4.12781 4.59412,-4.98107 1.80236,-0.83191 3.99535,-0.84413 6.60949,0.16112 3.2428,1.24818 7.06177,4.00269 11.49536,8.59803 0,0 0,0 0,0 z"
       style="fill:#ffcc00;fill-opacity:1;fill-rule:nonzero;stroke:none"
       id="path210" />
    <path
       inkscape:connector-curvature="0"
       d="m 290.92062,875.15065 c 1.38916,-1.58387 2.81311,-3.07678 4.05274,-4.19007 0.75011,-0.67382 1.35497,-1.20117 1.71447,-1.48926 0.0842,0.39246 0.16785,0.98939 0.25024,1.745 0.14039,1.30433 0.19044,2.93701 0.15199,4.75525 -1.06813,-0.23865 -2.21803,-0.42541 -3.44971,-0.55176 -0.92895,-0.0959 -1.83533,-0.18554 -2.71973,-0.26916 0,0 0,0 0,0 z"
       style="fill:#ffffff;fill-opacity:1;fill-rule:nonzero;stroke:none"
       id="path212" />
    <path
       inkscape:connector-curvature="0"
       d="m 277.93783,874.09047 c 0.75379,-1.74744 1.54297,-3.37647 2.27905,-4.61915 0.35095,-0.5896 0.63294,-1.06079 0.81788,-1.35925 0.22887,0.37903 0.53284,0.98694 0.8905,1.76636 0.57312,1.25794 1.16639,2.85584 1.72912,4.65454 -0.90637,-0.0714 -1.79443,-0.13916 -2.66906,-0.20569 -1.03394,-0.0794 -2.04834,-0.15808 -3.04749,-0.23681 0,0 0,0 0,0 z"
       style="fill:#ffffff;fill-opacity:1;fill-rule:nonzero;stroke:none"
       id="path214" />
    <path
       inkscape:connector-curvature="0"
       d="m 266.36312,872.90272 c 0.78796,-1.85364 1.61866,-3.59436 2.39441,-4.9115 0.36622,-0.62377 0.66284,-1.11877 0.85328,-1.42761 0.25024,0.41077 0.58532,1.09254 0.97961,1.97449 0.61035,1.3678 1.23901,3.11523 1.82984,5.07385 -2.01905,-0.19775 -4.01918,-0.42542 -6.05714,-0.70923 0,0 0,0 0,0 z"
       style="fill:#ffffff;fill-opacity:1;fill-rule:nonzero;stroke:none"
       id="path216" />
    <path
       inkscape:connector-curvature="0"
       d="m 251.85628,869.93336 c 0.77394,-1.79809 1.58265,-3.46253 2.32667,-4.70093 0.32837,-0.54687 0.59205,-0.98266 0.766,-1.26403 0.27098,0.4425 0.6372,1.19507 1.06383,2.1759 0.62257,1.42822 1.25915,3.23913 1.85487,5.25146 -1.91224,-0.41443 -3.90443,-0.89599 -6.01137,-1.4624 0,0 0,0 0,0 z"
       style="fill:#ffffff;fill-opacity:1;fill-rule:nonzero;stroke:none"
       id="path218" />
    <path
       inkscape:connector-curvature="0"
       d="m 242.45627,866.53553 c 1.16943,-1.44836 2.31323,-2.74352 3.28246,-3.656 0.39918,-0.37597 0.72449,-0.67932 0.94605,-0.88562 0.11538,0.41137 0.24292,1.03882 0.37842,1.83289 0.22827,1.34155 0.38208,3.01391 0.46142,4.87 -0.4132,-0.12388 -0.82885,-0.25208 -1.25061,-0.3827 -1.29883,-0.40405 -2.56896,-1.01074 -3.81774,-1.77857 0,0 0,0 0,0 z"
       style="fill:#ffffff;fill-opacity:1;fill-rule:nonzero;stroke:none"
       id="path220" />
    <path
       inkscape:connector-curvature="0"
       d="m 144.86288,825.37342 c -2.33826,0.57374 -3.95507,2.23145 -3.62793,3.75916 0.33875,1.5686 2.60742,2.42004 5.05371,1.89332 1.05164,-0.22645 1.96961,-0.67262 2.64649,-1.2317 -0.0659,0.0165 -0.13184,0.0311 -0.19898,0.0457 -2.44506,0.52733 -4.71435,-0.32472 -5.0531,-1.89332 -0.19165,-0.89416 0.28259,-1.8335 1.17981,-2.57325 0,0 0,0 0,0 z m -45.74828,28.3606 c -2.90773,1.18286 -4.6576,3.66944 -3.90015,5.5365 0.75988,1.86463 3.75,2.4237 6.65893,1.23963 0.6195,-0.2533 1.18653,-0.56397 1.68884,-0.91614 -2.65259,0.80689 -5.20507,0.19409 -5.89905,-1.51001 -0.59631,-1.4679 0.3595,-3.31909 2.21009,-4.61853 -0.25269,0.0769 -0.50538,0.16479 -0.75866,0.26855 0,0 0,0 0,0 z m 19.94811,-0.99121 c -3.49915,1.14624 -5.75318,3.90686 -5.0238,6.15601 0.7312,2.25525 4.19495,3.16528 7.70935,2.02393 0.92224,-0.29847 1.75781,-0.70924 2.47925,-1.19508 -0.0113,0.004 -0.022,0.007 -0.0311,0.01 -3.5144,1.14136 -6.97753,0.23133 -7.70873,-2.02452 -0.53955,-1.66444 0.55298,-3.60779 2.57507,-4.9701 0,0 0,0 0,0 z m -3.9386,-12.51648 c -3.08289,2.03674 -4.53064,5.30945 -3.22449,7.28882 1.30615,1.97876 4.88587,1.93237 7.96998,-0.10438 0.004,-0.003 0.008,-0.005 0.0127,-0.009 -2.34314,0.7489 -4.56481,0.39551 -5.53405,-1.07239 -1.30555,-1.97631 0.13671,-5.24292 3.20861,-7.27905 -0.81115,0.26002 -1.63879,0.65124 -2.43286,1.17554 0,0 0,0 0,0 z m 17.2815,-4.94507 c -3.08411,2.03614 -4.53248,5.30945 -3.22571,7.28882 1.30676,1.97877 4.88647,1.93238 7.96936,-0.10437 0.005,-10e-4 0.007,-0.005 0.0125,-0.008 -2.34193,0.74891 -4.5636,0.39551 -5.53284,-1.0736 -1.30432,-1.9751 0.13672,-5.2417 3.20984,-7.27905 -0.8136,0.26 -1.64001,0.65124 -2.43286,1.17614 0,0 0,0 0,0 z m 5.5365,14.64539 c -3.46558,1.28357 -5.61767,4.14428 -4.7937,6.36841 0.82275,2.2229 4.32067,2.9895 7.78442,1.70532 0.76661,-0.28503 1.46973,-0.64515 2.09045,-1.05957 -3.34533,1.10351 -6.63208,0.31432 -7.42676,-1.83228 -0.64208,-1.73096 0.52124,-3.84826 2.70325,-5.3064 -0.11962,0.0396 -0.23926,0.08 -0.35766,0.1245 0,0 0,0 0,0 z m 11.56127,-14.86755 c -2.69165,0.81542 -4.52881,2.66235 -4.32861,4.59472 0.24475,2.3584 3.44178,3.97034 7.1167,3.58886 1.71204,-0.177 3.23303,-0.75743 4.34509,-1.56432 -0.59509,0.17944 -1.23107,0.30945 -1.89696,0.37902 -3.67433,0.38148 -6.87135,-1.23107 -7.1167,-3.58947 -0.13063,-1.25915 0.60668,-2.48291 1.88048,-3.40881 0,0 0,0 0,0 z m 11.89332,-11.922 c -2.69104,0.81543 -4.53003,2.66296 -4.32984,4.59472 0.24536,2.35779 3.44177,3.97095 7.1167,3.58888 1.71204,-0.17762 3.23425,-0.75684 4.3451,-1.56495 -0.59571,0.18066 -1.23048,0.31006 -1.89636,0.37903 -3.67494,0.38208 -6.87195,-1.23108 -7.1167,-3.58887 -0.13002,-1.25976 0.60668,-2.48351 1.8811,-3.40881 0,0 0,0 0,0 z m 8.62426,11.34277 c -2.83081,0.90943 -4.76684,2.82288 -4.67468,4.94324 0.12088,2.83325 3.8208,4.99085 8.2373,4.80102 2.1936,-0.0934 4.16017,-0.7489 5.57008,-1.73217 -0.95215,0.307 -2.00745,0.49987 -3.12195,0.54749 -4.41529,0.1892 -8.11646,-1.969 -8.23853,-4.80287 -0.0604,-1.42638 0.79712,-2.7594 2.22778,-3.75671 0,0 0,0 0,0 z m 10.77332,-15.15686 c -3.07435,1.01624 -5.1471,3.17077 -4.9115,5.41809 0.2954,2.82227 4.12293,4.74732 8.51868,4.2859 1.93847,-0.20264 3.67004,-0.83619 4.97802,-1.72425 -0.78491,0.26062 -1.63513,0.44433 -2.52991,0.53893 -4.39696,0.46083 -8.22265,-1.46422 -8.51867,-4.28588 -0.1654,-1.57715 0.80506,-3.10792 2.46338,-4.23279 0,0 0,0 0,0 z M 36.848968,873.579 c -2.50122,0.6958 -4.21997,2.4237 -3.97584,4.15527 0.28138,1.97998 3.02613,3.23913 6.11207,2.80211 1.41296,-0.20018 2.65807,-0.72265 3.5669,-1.41906 -0.35829,0.0995 -0.73182,0.17823 -1.11878,0.23315 -3.08655,0.43763 -5.8307,-0.82152 -6.11206,-2.80151 -0.15198,-1.0736 0.45166,-2.14478 1.52771,-2.96996 0,0 0,0 0,0 z m 16.10718,-3.82874 c -2.10572,0.4718 -3.59803,1.87987 -3.39967,3.29162 0.2179,1.52833 2.33399,2.49878 4.71619,2.16125 1.21338,-0.1709 2.26624,-0.65246 2.97974,-1.28295 -0.17273,0.0385 -0.35095,0.072 -0.53101,0.097 -2.3822,0.33753 -4.4989,-0.63415 -4.71618,-2.16125 -0.1056,-0.74951 0.2655,-1.49718 0.95093,-2.10571 0,0 0,0 0,0 z m 12.44567,-4.59411 c -3.24524,1.31957 -5.19959,4.09545 -4.35241,6.1792 0.84716,2.08128 4.18274,2.70385 7.42859,1.38305 0.63903,-0.26002 1.22802,-0.57679 1.75597,-0.93384 -3.01574,0.9729 -5.95031,0.29907 -6.73706,-1.63453 -0.67993,-1.67236 0.44434,-3.7915 2.594,-5.24475 -0.2301,0.0739 -0.4596,0.15748 -0.68909,0.25087 0,0 0,0 0,0 z"
       style="fill:#231f20;fill-opacity:1;fill-rule:evenodd;stroke:none"
       id="path222" />
    <path
       style="fill:#ffcc00;stroke:none;stroke-width:1px;stroke-linecap:butt;stroke-linejoin:miter;stroke-opacity:1"
       d="m 31.466252,211.96521 c 0.629734,-16.59654 33.749476,-34.33202 71.064228,-32.88047 26.54153,0.0954 39.33723,12.51468 38.53732,37.12311 -6.77633,35.05183 -35.2094,34.37609 -50.911685,32.52691 -47.544486,-7.41362 -59.947496,-20.90941 -58.689863,-36.76955 z"
       id="path4640"
       inkscape:connector-curvature="0"
       transform="translate(0,752.36212)"
       sodipodi:nodetypes="ccccc" />
    <path
       inkscape:connector-curvature="0"
       d="m 68.38749,993.25399 c -8.34534,-2.31201 -30.46143,-10.9143 -33.12988,-22.97362 -0.0214,-0.0976 -0.0623,-0.2417 -0.0915,-0.33814 -0.0671,-0.21485 -1.59057,-5.34546 2.45361,-11.80786 4.83583,-7.73072 18.0896,-18.09083 53.7677,-23.54493 0.0402,-0.006 0.0842,-0.0134 0.12325,-0.022 0.22949,-0.0428 23.08715,-4.16504 36.57959,7.20094 6.86157,5.78002 10.25268,14.78515 10.07751,26.76147 -0.004,0.105 -0.53711,14.22119 -12.43775,22.88697 -12.07275,8.79268 -31.36596,9.41038 -57.34252,1.83715 0,0 0,0 0,0 z M 90.2222,927.45565 c -31.04186,4.75708 -50.86975,13.89527 -58.93066,27.16675 -2.9425,4.84619 -3.66822,9.3042 -3.66822,12.52198 0,2.83325 0.55665,4.68627 0.66345,5.01831 4.45435,18.54736 36.74744,27.66358 38.12807,28.04441 28.26232,8.241 49.70275,7.2278 63.67613,-3.02488 14.76136,-10.82887 15.2887,-27.8064 15.30396,-28.52295 0.20874,-14.29078 -4.05701,-25.19775 -12.677,-32.44385 -16.01746,-13.46192 -41.05529,-9.02954 -42.49573,-8.75977 0,0 0,0 0,0 z"
       style="fill:#231f20;fill-opacity:1;fill-rule:nonzero;stroke:none"
       id="path504" />
    <path
       inkscape:connector-curvature="0"
       d="m 38.94901,964.2391 c 0,0 6.31653,-16.84448 25.26673,-18.42407 0,0 -20.00244,8.94897 -17.37062,18.42407 0,0 -7.89611,0 -7.89611,0 0,0 0,0 0,0 z"
       style="fill:#231f20;fill-opacity:1;fill-rule:nonzero;stroke:none"
       id="path506" />
    <path
       style="fill:#ffcc00;stroke:none"
       d="m 189.95347,964.5609 c 0.62974,-16.5966 33.74948,-34.33205 71.06423,-32.8805 26.54153,0.0954 39.33723,12.5147 38.53732,37.1231 -6.77633,35.0518 -35.2094,34.3761 -50.91168,32.5269 -47.54449,-7.4136 -59.9475,-20.9094 -58.68987,-36.7695 z"
       id="path4640-8"
       inkscape:connector-curvature="0"
       sodipodi:nodetypes="ccccc" />
    <path
       inkscape:connector-curvature="0"
       d="m 226.87471,993.4875 c -8.34534,-2.312 -30.46143,-10.9143 -33.12988,-22.9736 -0.0214,-0.098 -0.0623,-0.2417 -0.0915,-0.3381 -0.0671,-0.2149 -1.59057,-5.3455 2.45361,-11.8079 4.83583,-7.7307 18.0896,-18.0908 53.7677,-23.54492 0.0402,-0.006 0.0842,-0.0134 0.12325,-0.022 0.22949,-0.0428 23.08715,-4.16504 36.57959,7.20092 6.86157,5.78 10.25268,14.7852 10.07751,26.7615 -0.004,0.105 -0.53711,14.2212 -12.43775,22.887 -12.07275,8.7926 -31.36596,9.4103 -57.34252,1.8371 0,0 0,0 0,0 z m 21.83471,-65.79831 c -31.04186,4.75708 -50.86975,13.89531 -58.93066,27.16671 -2.9425,4.8462 -3.66822,9.3042 -3.66822,12.522 0,2.8333 0.55665,4.6863 0.66345,5.0183 4.45435,18.5474 36.74744,27.6636 38.12807,28.0444 28.26232,8.241 49.70275,7.2278 63.67613,-3.0248 14.76136,-10.8289 15.2887,-27.8064 15.30396,-28.523 0.20874,-14.2908 -4.05701,-25.1977 -12.677,-32.44384 -16.01746,-13.46192 -41.05529,-9.02954 -42.49573,-8.75977 0,0 0,0 0,0 z"
       style="fill:#231f20;fill-opacity:1;fill-rule:nonzero;stroke:none"
       id="path504-7" />
    <path
       inkscape:connector-curvature="0"
       d="m 197.43623,964.4726 c 0,0 6.31653,-16.8444 25.26673,-18.424 0,0 -20.00244,8.9489 -17.37062,18.424 0,0 -7.89611,0 -7.89611,0 0,0 0,0 0,0 z"
       style="fill:#231f20;fill-opacity:1;fill-rule:nonzero;stroke:none"
       id="path506-8" />
    <path
       style="fill:#008000;stroke:none"
       d="m 449.9951,963.97508 c 0.62974,-16.59654 33.74948,-34.33202 71.06423,-32.88047 26.54153,0.0954 39.33723,12.51468 38.53732,37.1231 -6.77633,35.05179 -35.2094,34.37609 -50.91168,32.52689 -47.54449,-7.41359 -59.9475,-20.90939 -58.68987,-36.76952 z"
       id="path4640-5"
       inkscape:connector-curvature="0"
       sodipodi:nodetypes="ccccc" />
    <path
       inkscape:connector-curvature="0"
       d="m 486.91634,992.90171 c -8.34534,-2.312 -30.46143,-10.9143 -33.12988,-22.9736 -0.0214,-0.098 -0.0623,-0.2417 -0.0915,-0.3381 -0.0671,-0.2149 -1.59057,-5.34549 2.45361,-11.80789 4.83583,-7.73072 18.0896,-18.09083 53.7677,-23.54493 0.0402,-0.006 0.0842,-0.0134 0.12325,-0.022 0.22949,-0.0428 23.08715,-4.16504 36.57959,7.20094 6.86157,5.78002 10.25268,14.78515 10.07751,26.76148 -0.004,0.105 -0.53711,14.2212 -12.43775,22.887 -12.07275,8.7926 -31.36596,9.41029 -57.34252,1.8371 0,0 0,0 0,0 z m 21.83471,-65.79831 c -31.04186,4.75708 -50.86975,13.89527 -58.93066,27.16675 -2.9425,4.84619 -3.66822,9.3042 -3.66822,12.52196 0,2.8333 0.55665,4.6863 0.66345,5.0183 4.45435,18.5474 36.74744,27.6636 38.12807,28.0444 28.26232,8.24099 49.70275,7.22779 63.67613,-3.0248 14.76136,-10.8289 15.2887,-27.8064 15.30396,-28.523 0.20874,-14.29077 -4.05701,-25.19774 -12.677,-32.44384 -16.01746,-13.46192 -41.05529,-9.02954 -42.49573,-8.75977 0,0 0,0 0,0 z"
       style="fill:#231f20;fill-opacity:1;fill-rule:nonzero;stroke:none"
       id="path504-2" />
    <path
       inkscape:connector-curvature="0"
       d="m 457.47786,963.88685 c 0,0 6.31653,-16.84448 25.26673,-18.42407 0,0 -20.00244,8.94897 -17.37062,18.42407 0,0 -7.89611,0 -7.89611,0 0,0 0,0 0,0 z"
       style="fill:#231f20;fill-opacity:1;fill-rule:nonzero;stroke:none"
       id="path506-5" />
    <path
       style="fill:#d40000;stroke:none"
       d="m 697.95347,840.56087 c 0.62974,-16.59654 33.74948,-34.33202 71.06423,-32.88047 26.54153,0.0954 39.33723,12.51468 38.53732,37.12311 -6.77633,35.05179 -35.2094,34.37609 -50.91168,32.52689 -47.54449,-7.4136 -59.9475,-20.90939 -58.68987,-36.76953 z"
       id="path4640-56"
       inkscape:connector-curvature="0"
       sodipodi:nodetypes="ccccc" />
    <path
       inkscape:connector-curvature="0"
       d="m 734.87471,869.48753 c -8.34534,-2.31201 -30.46143,-10.9143 -33.12988,-22.97362 -0.0214,-0.0976 -0.0623,-0.2417 -0.0915,-0.33814 -0.0671,-0.21485 -1.59057,-5.34546 2.45361,-11.80786 4.83583,-7.73072 18.0896,-18.09083 53.7677,-23.54493 0.0402,-0.006 0.0842,-0.0134 0.12325,-0.022 0.22949,-0.0428 23.08715,-4.16504 36.57959,7.20094 6.86157,5.78002 10.25268,14.78515 10.07751,26.76147 -0.004,0.105 -0.53711,14.22119 -12.43775,22.88697 -12.07275,8.79264 -31.36596,9.41034 -57.34252,1.83715 0,0 0,0 0,0 z m 21.83471,-65.79834 c -31.04186,4.75708 -50.86975,13.89527 -58.93066,27.16675 -2.9425,4.84619 -3.66822,9.3042 -3.66822,12.52198 0,2.83325 0.55665,4.68627 0.66345,5.01831 4.45435,18.54736 36.74744,27.66357 38.12807,28.04437 28.26232,8.241 49.70275,7.2278 63.67613,-3.0248 14.76136,-10.82891 15.2887,-27.80644 15.30396,-28.52299 0.20874,-14.29078 -4.05701,-25.19775 -12.677,-32.44385 -16.01746,-13.46192 -41.05529,-9.02954 -42.49573,-8.75977 0,0 0,0 0,0 z"
       style="fill:#231f20;fill-opacity:1;fill-rule:nonzero;stroke:none"
       id="path504-70" />
    <path
       inkscape:connector-curvature="0"
       d="m 705.43623,840.47264 c 0,0 6.31653,-16.84448 25.26673,-18.42407 0,0 -20.00244,8.94897 -17.37062,18.42407 0,0 -7.89611,0 -7.89611,0 0,0 0,0 0,0 z"
       style="fill:#231f20;fill-opacity:1;fill-rule:nonzero;stroke:none"
       id="path506-6" />
    <path
       inkscape:connector-curvature="0"
       d="m 522.70984,818.02039 c -1.94946,-3.40942 -3.6267,-5.19104 -5.47485,-5.4126 -1.87439,-0.2246 -3.51624,1.06446 -5.34301,3.80189 -0.69214,-0.0263 -1.38916,-0.0379 -2.09108,-0.0385 -1.79198,-3.56873 -3.36363,-5.39063 -5.32165,-5.401 0,0 -0.005,0 -0.005,0 -2.06358,-0.01 -3.96483,2.09594 -6.44408,6.40014 -0.39368,0.0635 -0.78858,0.13001 -1.18408,0.19897 -3.09021,-3.5852 -5.28382,-5.2362 -7.25158,-4.90295 -2.17774,0.36865 -3.45033,2.88391 -4.66737,7.60925 0,0 0.19104,0.0482 0.19104,0.0482 -0.41321,0.11963 -0.82641,0.24169 -1.2384,0.3662 0,0 0.3064,-0.27344 0.3064,-0.27344 -2.71668,-3.06273 -4.81324,-4.39025 -6.84388,-3.78966 -2.6593,0.78491 -4.48791,5.46996 -4.78882,7.96935 -0.58899,0.22766 -1.17736,0.45778 -1.76148,0.69154 0,0 -0.96007,-0.47303 -0.96007,-0.47303 -3.396,-2.27478 -5.7489,-3.07495 -7.53785,-2.23877 -1.37268,1.25916 -2.29248,3.96972 -2.90161,7.67151 -1.81274,0.85083 -4.69177,-5.9198 -9.07654,-3.51196 -1.88171,1.03332 -2.59583,4.0509 -2.84973,9.52026 0,0 0.0125,6.1e-4 0.0125,6.1e-4 -0.0495,0.0256 -0.0989,0.0525 -0.14831,0.0794 -4.17297,-2.13501 -6.86157,-2.76733 -8.6383,-1.615 -1.71265,1.11145 -2.18689,3.56813 -1.93481,7.62452 -0.15991,0.0952 -0.318,0.19165 -0.47669,0.28626 -4.11377,-2.44263 -6.77369,-3.39295 -8.58887,-2.34193 -1.82617,1.05653 -2.27722,3.7854 -1.92749,8.66944 -0.49439,0.27893 -0.99426,0.55664 -1.49658,0.83251 -3.60778,-2.06298 -6.04187,-2.73376 -7.78076,-1.81151 -1.77307,0.94116 -2.43896,3.24279 -2.48719,7.10815 -0.28381,0.13794 -0.56945,0.27526 -0.8551,0.41321 -3.62853,-2.44385 -6.07666,-3.47656 -7.88635,-2.71546 -1.88721,0.79529 -2.59948,3.18421 -2.65808,7.53785 -0.57434,0.24963 -1.15052,0.49988 -1.72913,0.7489 -4.03259,-2.52686 -6.70592,-3.50709 -8.60351,-2.72095 -2.00013,0.82885 -2.74964,3.22693 -2.84119,7.41638 -0.2362,0.094 -0.4718,0.18616 -0.70801,0.27771 -3.5675,-2.49939 -5.99793,-3.6206 -7.81983,-3.01209 -1.95251,0.65369 -2.76061,2.89185 -2.92785,7.05506 -0.10315,0.0385 -0.20691,0.0751 -0.31006,0.11288 -3.17139,-2.58911 -5.4364,-3.60656 -7.29491,-2.93458 -1.87013,0.67689 -2.89369,2.87782 -3.58399,6.7212 -0.24536,0.0818 -0.49011,0.16297 -0.73425,0.24537 -3.33436,-3.20863 -5.65309,-4.69117 -7.62635,-4.11988 -2.00927,0.58228 -3.0835,3.0725 -3.87572,7.79419 -5.4828,1.67419 -10.70679,3.15979 -15.5066,4.41894 0,0 -0.24414,2.72645 -0.24414,2.72645 27.28027,12.51098 42.79602,11.53442 62.41332,9.55015 4.10584,-0.19774 8.1958,-0.61277 12.26808,-1.19994 6.286,-0.54443 13.16345,-0.96436 20.9851,-0.9552 8.042,0.006 17.16004,0.82398 26.62231,1.66992 36.10597,3.23181 77.09474,6.90002 86.72974,-31.20422 1.31226,-5.18371 1.43739,-10.38146 0.4889,-15.46875 -0.97107,-5.21118 -3.06457,-10.29114 -6.15784,-15.10803 -4.91333,-7.64832 -11.64551,-12.13623 -19.43421,-14.31702 0,0 0,0 0,0 z"
       style="fill:#231f20;fill-opacity:1;fill-rule:nonzero;stroke:none"
       id="path154-6" />
    <path
       inkscape:connector-curvature="0"
       d="m 416.953,853.63074 c 0.0928,-1.78222 0.35889,-2.8009 0.89113,-3.08227 0.57311,-0.30395 1.6693,0.001 3.38439,0.88257 -1.39587,0.73853 -2.82532,1.47155 -4.27552,2.1997 0,0 0,0 0,0 z m -11.41356,5.39551 c 0.0751,-2.18627 0.32409,-3.33985 0.84655,-3.56078 0.58594,-0.24537 1.78468,0.28442 3.6847,1.4917 -1.48987,0.6964 -3.00294,1.38671 -4.53125,2.06908 0,0 0,0 0,0 z m -13.18237,5.57923 c 0.10008,-2.13806 0.39611,-3.31299 1.01317,-3.57118 0.719,-0.29601 2.07581,0.19777 4.21326,1.43128 -1.73156,0.72327 -3.47412,1.43739 -5.22643,2.1399 0,0 0,0 0,0 z m -11.43799,4.4049 c 0.12329,-2.00866 0.39184,-3.04993 0.89721,-3.21838 0.6134,-0.20508 1.79078,0.33387 3.61145,1.52405 -1.50085,0.57373 -3.00599,1.13953 -4.50866,1.69433 0,0 0,0 0,0 z m -10.97169,3.90504 c 0.39246,-1.74195 0.82703,-2.7124 1.40259,-2.92115 0.59144,-0.2124 1.58997,0.24597 3.0896,1.35865 -1.50329,0.53222 -3.0011,1.05163 -4.49219,1.5625 0,0 0,0 0,0 z m -12.29247,4.03076 c 0.47546,-2.54884 0.95092,-3.86353 1.57226,-4.04114 0.63965,-0.18616 1.82922,0.63293 3.69262,2.36084 -1.7749,0.57556 -3.52966,1.13586 -5.26488,1.6803 0,0 0,0 0,0 z m 92.80761,-42.26929 c 0.21362,-3.2666 0.56457,-5.01526 1.24206,-5.38696 0.62013,-0.34058 2.07948,0.52734 4.55445,2.46032 -1.98914,0.97107 -3.92334,1.95008 -5.79651,2.92664 0,0 0,0 0,0 z m -10.87646,5.99793 c -0.0549,-1.9983 0.13671,-3.15553 0.67932,-3.50892 0.59326,-0.38452 1.8634,-0.0733 3.94165,0.88013 -1.61134,0.8966 -3.15491,1.77551 -4.62097,2.62879 0,0 0,0 0,0 z m -11.01745,6.67175 c -0.14954,-2.74293 -0.003,-4.20899 0.57555,-4.54347 0.59387,-0.34301 2.00012,0.21668 4.32983,1.54237 -0.43091,0.26733 -0.85143,0.52978 -1.25976,0.78491 -1.17737,0.74036 -2.39502,1.48071 -3.64562,2.21619 0,0 0,0 0,0 z m 86.69311,-30.70679 c 0.65429,-0.81543 1.18652,-1.20118 1.63512,-1.14746 0.52308,0.0629 1.1261,0.60302 1.8573,1.63025 -1.14685,-0.20447 -2.31262,-0.36255 -3.49242,-0.48279 0,0 0,0 0,0 z m -13.55653,0.2179 c 1.24818,-2.00563 2.12098,-2.99134 2.76368,-2.98768 0,0 -0.005,0 -0.005,0 0.55846,0.002 1.23717,0.87219 2.1405,2.57813 -1.6156,0.0788 -3.25074,0.2179 -4.89869,0.40955 0,0 0,0 0,0 z m -25.86852,6.50695 c 0.86609,-2.43469 1.58935,-3.73351 2.3236,-3.94959 0.6305,-0.18554 1.62171,0.52858 3.09326,2.09229 -1.81274,0.5835 -3.62121,1.20545 -5.41686,1.8573 0,0 0,0 0,0 z m 12.31445,-3.87878 c 0.71227,-2.51892 1.297,-3.83606 1.92687,-3.94226 0.66224,-0.11175 1.76514,0.77454 3.47108,2.66174 -1.79199,0.3772 -3.59558,0.80627 -5.39795,1.28052 0,0 0,0 0,0 z m -25.81299,9.40185 c 0.22461,-2.17712 0.578,-3.39172 1.18225,-3.67431 0.63843,-0.29846 1.87928,0.20324 3.8678,1.4685 -1.70532,0.71778 -3.39111,1.45508 -5.05005,2.20581 0,0 0,0 0,0 z"
       style="fill:#008000;fill-opacity:1;fill-rule:nonzero;stroke:none"
       id="path156-3" />
    <path
       inkscape:connector-curvature="0"
       d="m 512.82032,819.37477 c 0,0 0.47607,0.27648 0.47607,0.27648 0.047,-0.0806 0.0946,-0.15808 0.13855,-0.23621 2.53724,0.17823 4.99573,0.54566 7.35291,1.12915 0.0561,0.10563 0.11288,0.2118 0.16968,0.32044 0,0 0.35217,-0.18615 0.35217,-0.18615 7.42004,1.95067 13.8031,6.08215 18.38867,13.22144 2.89733,4.51293 4.85352,9.24498 5.75317,14.07226 0.87036,4.67346 0.75256,9.45495 -0.45349,14.23279 -1.01135,3.99597 -2.40783,7.49695 -4.13635,10.56578 -24.62036,-11.95738 -52.30041,-3.27697 -81.69738,5.94239 -15.00671,4.70581 -30.4657,9.55445 -46.12794,11.80848 -3.37158,0.29296 -6.56371,0.61828 -9.64111,0.93383 -0.77393,0.0787 -1.53869,0.15687 -2.29737,0.23438 -0.76903,0.0366 -1.53808,0.0678 -2.30651,0.0885 0,0 0.003,0.1416 0.003,0.1416 -17.28516,1.68945 -31.70532,2.17041 -55.04822,-7.85218 14.47693,-3.97643 32.07825,-9.7345 48.96302,-16.47826 15.16906,-6.05652 29.77355,-12.91382 41.04614,-19.9994 14.06555,-8.84032 42.68615,-24.70275 67.79785,-27.78381 2.17774,-0.26733 4.328,-0.4364 6.43921,-0.49683 0.008,0.0182 0.014,0.0348 0.0226,0.0525 0,0 0.12387,-0.0555 0.12387,-0.0555 1.58508,-0.0421 3.14635,-0.0208 4.68139,0.0684 0,0 0,0 0,0 z"
       style="fill:#008000;fill-opacity:1;fill-rule:nonzero;stroke:none"
       id="path158-7" />
    <path
       inkscape:connector-curvature="0"
       d="m 460.79518,881.2461 c 0.44372,1.50818 1.22375,3.64929 2.18261,5.68115 0.57984,1.23474 1.73156,3.12195 2.82715,4.6991 -1.49414,-0.13001 -2.98462,-0.26428 -4.46472,-0.39551 -9.51478,-0.85327 -18.68592,-1.67297 -26.88599,-1.68212 -0.66773,0 -1.32995,0.002 -1.98425,0.009 9.32067,-2.3529 18.52051,-5.23743 27.55676,-8.07068 0.25635,-0.0817 0.51148,-0.16114 0.76844,-0.24109 0,0 0,0 0,0 z"
       style="fill:#ffe680;fill-opacity:1;fill-rule:nonzero;stroke:none"
       id="path160-4" />
    <path
       inkscape:connector-curvature="0"
       d="m 473.44532,877.35023 c 0.50171,2.29859 1.35865,4.83642 2.45972,7.19726 1.09009,2.34009 3.31359,5.94849 5.17821,8.21411 -4.45251,-0.23986 -8.93432,-0.58898 -13.37585,-0.97106 -1.19323,-1.59302 -2.74108,-4.04114 -3.41796,-5.48035 -0.94482,-2.00927 -1.70777,-4.09424 -2.11731,-5.49621 3.79027,-1.18714 7.54944,-2.35658 11.27319,-3.46375 0,0 0,0 0,0 z"
       style="fill:#ffe680;fill-opacity:1;fill-rule:nonzero;stroke:none"
       id="path162-2" />
    <path
       inkscape:connector-curvature="0"
       d="m 489.99744,872.93067 c 0.38696,2.7826 1.38428,5.80322 2.56714,8.61511 1.67847,3.98682 4.29566,8.7555 5.87891,11.41114 -4.97559,0.21972 -10.12085,0.14526 -15.31861,-0.094 -1.83654,-1.7981 -4.66735,-6.27992 -5.90149,-8.92823 -1.07421,-2.3053 -1.90735,-4.77966 -2.37976,-6.9989 5.12207,-1.50207 10.17701,-2.87537 15.15381,-4.00514 0,0 0,0 0,0 z"
       style="fill:#ffe680;fill-opacity:1;fill-rule:nonzero;stroke:none"
       id="path164-1" />
    <path
       inkscape:connector-curvature="0"
       d="m 515.28125,890.73463 c -1.156,-1.18225 -3.58276,-5.26184 -5.61035,-10.24414 -1.32873,-3.26111 -2.44262,-6.88294 -2.85705,-10.30151 11.39893,-0.98389 22.28454,0.18126 32.50672,5.07506 -5.6482,8.3429 -14.08632,13.02064 -24.03932,15.47059 0,0 0,0 0,0 z"
       style="fill:#ffe680;fill-opacity:1;fill-rule:nonzero;stroke:none"
       id="path166-8" />
    <path
       inkscape:connector-curvature="0"
       d="m 505.36365,870.32387 c 0.42787,3.57116 1.58448,7.33458 2.9602,10.71471 1.77369,4.35486 3.97889,8.11096 5.49378,10.03845 -4.38049,0.96925 -9.03748,1.53199 -13.8623,1.80481 -1.25549,-2.08922 -4.18945,-7.47864 -6.05041,-11.8988 -1.15784,-2.75207 -2.1283,-5.69641 -2.4823,-8.36975 4.72167,-1.02784 9.37072,-1.82556 13.94103,-2.28942 0,0 0,0 0,0 z"
       style="fill:#ffe680;fill-opacity:1;fill-rule:nonzero;stroke:none"
       id="path168-4" />
    <path
       inkscape:connector-curvature="0"
       d="m 479.03187,860.29884 c 2.13683,12.12219 -9.87183,24.27734 -9.5636,35.62621 3.48755,0.18738 6.15967,-2.3053 7.01355,-2.45605 -0.5835,0.1025 -1.18774,3.06153 -1.52222,6.39588 2.60682,-0.28015 5.51575,-3.3014 6.15662,-3.41431 0.20386,1.92077 -0.70008,4.79553 -0.48035,5.65368 20.94848,-9.7998 31.13708,-32.38281 30.62561,-39.65637 0,0 -32.22961,-2.14904 -32.22961,-2.14904 0,0 0,0 0,0 z"
       style="fill:#008000;fill-opacity:1;fill-rule:evenodd;stroke:none"
       id="path170-8" />
    <path
       inkscape:connector-curvature="0"
       d="m 490.66334,894.06227 c -3.58582,-0.71717 -7.06177,-1.96168 -10.11841,-3.85072 -2.5409,-1.56677 -4.79493,-3.58032 -6.5802,-6.10351 0.51575,-1.19507 1.06445,-2.40051 1.61499,-3.6084 4.469,-9.8175 6.87012,-15.64514 2.75391,-25.62744 0.66589,7.06848 -0.3296,14.13697 -5.39979,24.42444 -2.55676,5.61463 -5.07262,11.14075 -4.92309,16.67053 0,0 0.0373,1.33545 0.0373,1.33545 2.1399,0.11475 3.88307,0.0537 5.90515,-0.85877 -0.29175,1.67603 -0.448,3.36732 -0.61828,5.06043 2.03613,-0.32104 3.16772,-0.77393 6.11085,-2.10144 -0.28383,1.7688 -0.22828,3.00781 0.21972,4.76013 9.13635,-4.27429 16.474,-9.97742 22.65075,-17.97485 7.3584,-9.52942 11.04188,-17.77954 9.80469,-29.41589 -1.9934,9.3573 -3.82263,17.70264 -12.10388,27.64221 -2.60437,3.37036 -5.72143,6.68579 -9.35363,9.64783 0,0 0,0 0,0 z"
       style="fill:#000000;fill-opacity:1;fill-rule:nonzero;stroke:none"
       id="path172-5" />
    <path
       inkscape:connector-curvature="0"
       d="m 472.99854,886.44324 c 1.81763,2.27845 3.99353,4.13636 6.40015,5.62195 2.76855,1.7096 5.84229,2.92725 9.02526,3.7262 0,0 -6.07543,3.82935 -6.07543,3.82935 0,0 0.0489,-4.87794 0.0489,-4.87794 0,0 -5.70739,2.96937 -5.70739,2.96937 0,0 -0.45532,-5.68177 -0.45532,-5.68177 0,0 -5.27283,2.33887 -5.27283,2.33887 0,0 2.03674,-7.92603 2.03674,-7.92603 0,0 0,0 0,0 z"
       style="fill:#ffe680;fill-opacity:1;fill-rule:nonzero;stroke:none"
       id="path174-5" />
    <path
       inkscape:connector-curvature="0"
       d="m 405.66028,870.91957 c 0.31922,12.30407 -13.35998,22.54577 -14.73633,33.81408 3.42042,0.70252 6.43373,-1.36597 7.2992,-1.38793 -0.59203,0.0146 -1.62658,2.85095 -2.453,6.09923 2.62024,0.10925 5.94543,-2.44812 6.59424,-2.46398 -0.0824,1.92932 -1.40259,4.63806 -1.31226,5.51941 22.16919,-6.5857 35.59326,-27.41089 36.16516,-34.67958 0,0 -31.55701,-6.90123 -31.55701,-6.90123 0,0 0,0 0,0 z"
       style="fill:#008000;fill-opacity:1;fill-rule:evenodd;stroke:none"
       id="path176-9" />
    <path
       inkscape:connector-curvature="0"
       d="m 412.15992,906.0337 c -3.43994,-1.24085 -6.69129,-2.98767 -9.43543,-5.30701 -2.28027,-1.9281 -4.21142,-4.25231 -5.60364,-7.01171 0.68909,-1.10719 1.41053,-2.21498 2.13258,-3.32948 5.87585,-9.04601 9.11255,-14.45373 6.52282,-24.93713 -0.39001,7.08985 -2.42066,13.93311 -8.96057,23.3545 -3.36181,5.17456 -6.66809,10.26672 -7.33825,15.75745 0,0 -0.16175,1.3269 -0.16175,1.3269 2.099,0.42968 3.83179,0.62622 5.9668,0.0263 -0.53589,1.61376 -0.943,3.26232 -1.3623,4.91088 2.06176,-0.0146 3.24829,-0.2948 6.35559,-1.17005 -0.5426,1.70472 -0.67139,2.94007 -0.48768,4.73755 9.66798,-2.87231 17.76916,-7.42492 25.06409,-14.41955 8.69019,-8.33252 13.5553,-15.94543 14.05517,-27.63795 -3.35876,8.96058 -6.40258,16.94214 -16.06628,25.54505 -3.07495,2.94739 -6.64978,5.76355 -10.68115,8.1543 0,0 0,0 0,0 z"
       style="fill:#231f20;fill-opacity:1;fill-rule:nonzero;stroke:none"
       id="path178-1" />
    <path
       inkscape:connector-curvature="0"
       d="m 395.82019,895.88112 c 1.45996,2.52257 3.33741,4.682 5.49561,6.50695 2.48597,2.10205 5.34485,3.7616 8.37464,5.02381 0,0 -6.57654,2.88696 -6.57654,2.88696 0,0 0.77087,-4.8169 0.77087,-4.8169 0,0 -6.08337,2.09045 -6.08337,2.09045 0,0 0.39123,-5.68664 0.39123,-5.68664 0,0 -5.5603,1.53259 -5.5603,1.53259 0,0 3.18786,-7.53722 3.18786,-7.53722 0,0 0,0 0,0 z"
       style="fill:#ffe680;fill-opacity:1;fill-rule:nonzero;stroke:none"
       id="path180-8" />
    <path
       inkscape:connector-curvature="0"
       d="m 569.96327,848.39515 c 1.52038,1.7102 3.02185,3.2312 4.28588,4.25659 1.46545,1.18835 2.80152,1.75659 3.85193,1.38489 0,0 0.56946,-0.35584 0.56946,-0.35584 0.64391,-0.62377 1.0376,-1.8457 1.20849,-3.48876 0.14039,-1.33484 0.17151,-3.01148 0.108,-4.89136 0.96924,-0.30213 1.94031,-0.6073 2.91442,-0.9143 0.83253,1.85668 1.67237,3.51622 2.4347,4.7235 1.00037,1.58813 2.06055,2.57812 3.12988,2.63428 0,0 0.67261,-0.11287 0.67261,-0.11287 1.0022,-0.41625 1.9342,-1.86401 2.73499,-3.98438 0.66711,-1.76452 1.33727,-4.12902 1.93847,-6.79565 0.29603,-0.0983 0.58777,-0.19713 0.88257,-0.29662 0.63172,1.27624 1.25306,2.38769 1.8274,3.22631 0.88927,1.29516 1.83166,2.08313 2.80517,2.13318 0,0 0.67505,-0.11113 0.67505,-0.11113 0.91248,-0.38025 1.75415,-1.58447 2.48351,-3.36121 0.56153,-1.36535 1.12549,-3.15003 1.64857,-5.18433 0.60425,-0.2185 1.20483,-0.43945 1.80663,-0.66222 0.83497,1.90612 1.69252,3.65295 2.48842,4.9823 1.08642,1.8164 2.23448,2.9718 3.3728,3.031 0,0 0.67505,-0.11113 0.67505,-0.11113 1.10046,-0.45958 2.14843,-2.24853 3.03893,-4.84436 0.69703,-2.03369 1.38612,-4.66491 1.98182,-7.55431 1.32018,2.28454 2.70752,4.47754 3.94165,6.11632 1.58691,2.1045 3.13903,3.41493 4.42443,3.25013 0,0 0.64027,-0.2362 0.64027,-0.2362 1.08092,-0.69275 1.90735,-2.98829 2.43468,-6.15296 0.40712,-2.45605 0.70557,-5.54809 0.85023,-8.83972 0.47485,-0.25147 0.9497,-0.50232 1.41724,-0.75683 2.32421,-1.26099 4.32556,-2.61048 6.02233,-4.01734 4.24865,-3.52051 6.64429,-7.42798 7.55067,-11.27564 0,0 10e-4,0.005 10e-4,0.005 0.9253,-3.9209 0.29969,-7.75512 -1.49231,-11.05714 -0.52307,-0.96618 -1.14624,-1.88415 -1.85485,-2.74047 -1.95618,-2.3584 -4.58802,-3.9862 -7.54212,-4.95423 -3.75732,-1.23168 -8.04687,-1.40563 -12.11121,-0.672 -4.0686,0.73548 -7.94921,2.39259 -10.87464,4.8169 -1.93602,1.604 -3.4558,3.54248 -4.35607,5.77454 -0.5664,0.17211 -1.07421,0.33264 -1.64856,0.51209 -9.06555,2.8479 -31.97327,10.04639 -41.32508,4.25536 -7.41576,-5.75256 -15.72754,-7.09716 -23.25072,-5.11596 -4.86634,1.28174 -9.38904,3.95691 -13.10548,7.7301 -3.69995,3.7561 -6.60766,8.59985 -8.26355,14.23401 -3.25866,11.0852 -1.68029,25.24293 8.25379,40.16296 0,0 0.8844,1.32997 0.8844,1.32997 0,0 1.30737,-0.91615 1.30737,-0.91615 6.86402,-4.8114 22.41822,-9.5874 40.29542,-15.07507 0.0885,-0.0269 0.17761,-0.0544 0.26611,-0.0818 0,0 0,0 0,0 z"
       style="fill:#231f20;fill-opacity:1;fill-rule:nonzero;stroke:none"
       id="path182-9" />
    <path
       inkscape:connector-curvature="0"
       d="m 528.96045,860.12 c -8.60717,-13.57543 -9.94506,-26.30493 -7.0166,-36.27502 1.50635,-5.12451 4.14002,-9.51965 7.48719,-12.91565 3.32824,-3.37951 7.35961,-5.77088 11.68761,-6.9104 6.65223,-1.7511 14.03627,-0.531 20.6421,4.63867 0,0 0.1361,0.0989 0.1361,0.0989 10.55115,6.58325 34.47754,-0.93383 43.94104,-3.90747 1.08765,-0.34179 2.0105,-0.63233 2.35353,-0.73364 0,0 0.7843,-0.23376 0.7843,-0.23376 0,0 0.2533,-0.77271 0.2533,-0.77271 0.65062,-1.98059 1.94457,-3.70423 3.656,-5.12207 2.49877,-2.07092 5.87218,-3.49487 9.45068,-4.14123 3.58459,-0.6482 7.33582,-0.50538 10.58472,0.55847 2.42492,0.79529 4.56298,2.10144 6.11083,3.97094 0.58717,0.7074 1.0962,1.45814 1.52283,2.24244 1.43494,2.64648 1.93665,5.71838 1.19569,8.85742 0,0 0.003,0.006 0.003,0.006 -0.75807,3.21473 -2.8186,6.52526 -6.5033,9.58008 -1.55213,1.28601 -3.38684,2.5232 -5.52552,3.68347 -0.81115,0.44068 -1.63635,0.87646 -2.47375,1.30676 0,0 -0.50537,-0.0113 -0.50537,-0.0113 -0.002,0.0904 -0.005,0.18128 -0.007,0.27222 -16.82923,8.56018 -38.7268,15.2826 -57.95105,21.18408 -17.07641,5.24232 -32.06299,9.84314 -39.82544,14.62342 0,0 0,0 0,0 z"
       style="fill:#008000;fill-opacity:1;fill-rule:nonzero;stroke:none"
       id="path184-7" />
    <path
       inkscape:connector-curvature="0"
       d="m 590.33435,842.0011 c -0.44372,1.7566 -0.91186,3.30994 -1.38061,4.5459 -0.24231,0.64332 -0.45287,1.16639 -0.62072,1.54175 -0.0866,-0.17517 -0.20325,-0.38757 -0.35828,-0.63232 -0.64881,-1.03089 -1.36597,-2.43469 -2.08862,-4.01734 1.48071,-0.47362 2.96325,-0.95154 4.44824,-1.43799 0,0 0,0 0,0 z"
       style="fill:#ffffff;fill-opacity:1;fill-rule:nonzero;stroke:none"
       id="path186-9" />
    <path
       inkscape:connector-curvature="0"
       d="m 600.54554,838.54285 c -0.31372,1.04614 -0.62866,1.96473 -0.93995,2.72034 -0.15014,0.36804 -0.28381,0.68238 -0.39794,0.93445 -0.0292,-0.0538 -0.0659,-0.11225 -0.10862,-0.17334 -0.43945,-0.64087 -0.92224,-1.49292 -1.42273,-2.48413 0.95764,-0.32959 1.91528,-0.66102 2.86927,-0.99732 0,0 0,0 0,0 z"
       style="fill:#ffffff;fill-opacity:1;fill-rule:nonzero;stroke:none"
       id="path188-1" />
    <path
       inkscape:connector-curvature="0"
       d="m 626.57887,827.87085 c -0.15687,2.49818 -0.40161,4.80835 -0.71717,6.70167 -0.25207,1.51795 -0.49621,2.69836 -0.71472,3.3844 -0.26978,-0.35279 -0.69275,-0.9137 -1.21765,-1.61133 -1.11023,-1.47339 -2.37305,-3.45825 -3.59253,-5.55786 2.13623,-0.94788 4.2218,-1.91895 6.24207,-2.91688 0,0 0,0 0,0 z"
       style="fill:#ffffff;fill-opacity:1;fill-rule:nonzero;stroke:none"
       id="path190-1" />
    <path
       inkscape:connector-curvature="0"
       d="m 614.00928,833.47205 c -0.45715,1.96717 -0.94543,3.73658 -1.43859,5.1709 -0.35401,1.03149 -0.65919,1.84204 -0.89539,2.35535 -0.13793,-0.25696 -0.32532,-0.60181 -0.57495,-1.01746 -0.69397,-1.16027 -1.46485,-2.73315 -2.23633,-4.48547 1.73401,-0.66223 3.45032,-1.33607 5.14526,-2.02332 0,0 0,0 0,0 z"
       style="fill:#ffffff;fill-opacity:1;fill-rule:nonzero;stroke:none"
       id="path192-5" />
    <path
       inkscape:connector-curvature="0"
       d="m 576.8816,846.26563 c 0.0269,1.42579 -0.004,2.65442 -0.10312,3.61145 -0.033,0.31067 -0.0641,0.57984 -0.0959,0.80445 -0.116,-0.1294 -0.26733,-0.2832 -0.46936,-0.44678 -0.84472,-0.68482 -1.8628,-1.68275 -2.94922,-2.85278 1.19751,-0.36865 2.40417,-0.74037 3.61756,-1.11634 0,0 0,0 0,0 z"
       style="fill:#ffffff;fill-opacity:1;fill-rule:nonzero;stroke:none"
       id="path194-0" />
    <path
       inkscape:connector-curvature="0"
       d="m 634.33277,799.79408 c -1.71082,-0.87403 -8.16528,-3.84521 -12.06909,-3.21839 -4.10705,0.65979 -5.32287,5.24903 2.77833,3.57728 0,0 3.98071,-0.82154 3.98071,-0.82154 0,0 5.31005,0.46265 5.31005,0.46265 0,0 0,0 0,0 z"
       style="fill:#231f20;fill-opacity:1;fill-rule:evenodd;stroke:none"
       id="path196-0" />
    <path
       inkscape:connector-curvature="0"
       d="m 535.65663,808.74427 c -1.45264,2.89185 -2.08985,6.22925 -1.64795,9.66858 1.1792,9.19312 9.63989,15.72815 18.833,14.54773 4.59717,-0.5896 8.52966,-3.00049 11.16455,-6.41235 2.40784,-3.11706 3.7323,-7.07398 3.49244,-11.24085 0,0 -25.42359,-7.44019 -25.42359,-7.44019 0,0 0.58837,3.27943 0.58837,3.27943 0,0 -7.00682,-2.40235 -7.00682,-2.40235 0,0 0,0 0,0 z"
       style="fill:#231f20;fill-opacity:1;fill-rule:nonzero;stroke:none"
       id="path198-4" />
    <path
       inkscape:connector-curvature="0"
       d="m 563.62538,816.08802 c 0.32409,3.33985 -0.68726,6.53198 -2.60988,9.02038 -1.9989,2.58729 -4.98046,4.41407 -8.46496,4.86207 -6.97021,0.89538 -13.38561,-4.05945 -14.28039,-11.03028 -0.34302,-2.67456 0.17455,-5.26734 1.33728,-7.49756 0,0 4.55932,1.56311 4.55932,1.56311 0,0 -0.49438,-2.75756 -0.49438,-2.75756 0,0 19.95301,5.83984 19.95301,5.83984 0,0 0,0 0,0 z"
       style="fill:#f47216;fill-opacity:1;fill-rule:nonzero;stroke:none"
       id="path200-7" />
    <path
       inkscape:connector-curvature="0"
       d="m 538.94153,811.21437 c -1.19201,2.33092 -1.71935,5.03051 -1.36169,7.81432 0.94299,7.35046 7.70874,12.5763 15.0592,11.63269 7.11915,-0.91369 12.24426,-7.28698 11.7041,-14.36401 0,0 -20.67077,-6.04919 -20.67077,-6.04919 0,0 0.49438,2.75756 0.49438,2.75756 0,0 -5.22522,-1.79137 -5.22522,-1.79137 0,0 0,0 0,0 z"
       style="fill:#ffffff;fill-opacity:1;fill-rule:evenodd;stroke:none"
       id="path202-2" />
    <path
       inkscape:connector-curvature="0"
       d="m 555.34229,816.1698 c -0.15136,-1.17797 -0.46509,-2.28881 -0.87524,-3.31053 0,0 -7.34741,-2.14967 -7.34741,-2.14967 -0.63844,1.87257 -1.0669,4.19312 -0.75745,6.61194 0.72998,5.67933 5.18615,9.81506 5.8136,9.73389 0.62928,-0.0805 3.89648,-5.20813 3.1665,-10.88563 0,0 0,0 0,0 z"
       style="fill:#231f20;fill-opacity:1;fill-rule:evenodd;stroke:none"
       id="path204-1" />
    <path
       inkscape:connector-curvature="0"
       d="m 553.73645,813.19313 c -0.44677,0.71532 -0.65917,1.58264 -0.54321,2.47985 0.26611,2.0697 2.17041,3.54065 4.2389,3.27454 1.89086,-0.24232 3.28003,-1.8518 3.30383,-3.70544 0,0 -6.99952,-2.04895 -6.99952,-2.04895 0,0 0,0 0,0 z"
       style="fill:#ffffff;fill-opacity:1;fill-rule:evenodd;stroke:none"
       id="path206-5" />
    <path
       inkscape:connector-curvature="0"
       d="m 588.58448,877.28797 c -0.74585,-2.73987 -1.59546,-5.2539 -2.43347,-7.17834 -1.01684,-2.33215 -2.14906,-3.93433 -3.26538,-4.32251 0,0 -0.59876,-0.0855 -0.59876,-0.0855 -1.18346,0.0684 -2.3767,1.2793 -3.49243,3.13537 -0.3534,0.58839 -0.71411,1.25366 -1.07789,1.97021 -0.0817,-0.83251 -0.18127,-1.604 -0.29906,-2.29857 -0.37354,-2.19971 -1.01441,-3.80005 -1.92322,-4.42384 0,0 -0.5603,-0.23986 -0.5603,-0.23986 -1.12733,-0.23865 -2.53968,0.56091 -4.04603,1.97754 -1.14318,1.07482 -2.43164,2.5293 -3.703,4.1095 -3.80066,-3.02247 -7.43102,-7.32849 -11.0968,-11.68092 -2.30591,-2.73437 -4.62402,-5.48461 -7.0398,-7.9895 -4.77355,-4.94567 -8.97093,-7.94433 -12.61779,-9.34692 -3.46375,-1.33361 -6.47217,-1.26953 -9.04175,-0.086 -2.51831,1.16395 -4.53063,3.38867 -6.06628,6.41662 -2.16125,4.25782 -3.39355,10.17457 -3.77808,16.93177 -0.108,1.88721 -0.0842,3.68836 0.0616,5.40588 0.80016,9.39088 5.27037,15.96375 12.18383,20.3418 6.75293,4.27552 15.80688,6.3977 25.9967,6.97754 5.72083,0.32715 11.82007,0.16724 18.078,-0.36621 7.74475,-0.66101 13.25745,0.3888 19.67652,1.60889 5.96191,1.13281 12.68372,2.41088 22.50061,2.67333 8.44177,0.22705 14.10828,-2.08801 16.85914,-5.17943 1.1914,-1.3385 1.86888,-2.82715 2.02452,-4.34937 0.16053,-1.5448 -0.21606,-3.10058 -1.13647,-4.54407 -1.17493,-1.8457 -3.28064,-3.49914 -6.31592,-4.65149 0.0763,-2.28394 0.0299,-4.36279 -0.14831,-6.00891 -0.23071,-2.13013 -0.75745,-3.70361 -1.60584,-4.37316 0,0 -0.54382,-0.27528 -0.54382,-0.27528 -1.2622,-0.35766 -3.05786,0.6659 -4.99878,2.41028 -1.81336,1.62842 -3.92212,3.92395 -5.79041,6.167 -0.036,-0.003 -0.0732,-0.006 -0.11112,-0.009 -0.70497,-2.40052 -1.47767,-4.55994 -2.23328,-6.21215 -0.95215,-2.08192 -2.00684,-3.50159 -3.06336,-3.86842 0,0 -0.59754,-0.0855 -0.59754,-0.0855 -1.20666,0.0696 -2.42554,1.32995 -3.56384,3.2489 -0.72876,1.22803 -1.49718,2.79053 -2.23632,4.47083 -0.59754,-1.9281 -1.23535,-3.67431 -1.8628,-5.08056 -0.98328,-2.2052 -2.07703,-3.71338 -3.16223,-4.0918 0,0 -0.59876,-0.0849 -0.59876,-0.0849 -1.21581,0.0702 -2.45116,1.35925 -3.6029,3.31665 -0.94482,1.60705 -1.95435,3.76281 -2.87841,6.0022 -0.62379,-0.10438 -1.25306,-0.21424 -1.89088,-0.33265 0,0 0,0 0,0 z"
       style="fill:#231f20;fill-opacity:1;fill-rule:nonzero;stroke:none"
       id="path208-1" />
    <path
       inkscape:connector-curvature="0"
       d="m 546.80835,852.42408 c 2.33948,2.4231 4.62464,5.13427 6.89637,7.82959 5.95703,7.0691 11.82617,14.03503 18.93737,16.24207 14.71193,4.56481 23.7494,5.25634 35.38636,6.14685 3.81469,0.29235 7.91199,0.60546 12.58057,1.08643 5.64818,0.58105 9.13878,2.46398 10.55847,4.69237 0.52368,0.82336 0.74219,1.69739 0.65246,2.5531 -0.0904,0.87891 -0.50537,1.76698 -1.24206,2.59339 -2.20276,2.47741 -7.02149,4.32434 -14.4513,4.12415 -9.66614,-0.25879 -16.203,-1.50148 -22.00439,-2.60499 -6.65832,-1.26525 -12.37671,-2.3529 -20.51758,-1.65894 -6.10229,0.52003 -12.05078,0.67444 -17.63549,0.35707 -9.7046,-0.55359 -18.25501,-2.52869 -24.50989,-6.49048 -6.09497,-3.85865 -10.03662,-9.66492 -10.74525,-17.97241 -0.13184,-1.55518 -0.15136,-3.20801 -0.0525,-4.964 0.36255,-6.35254 1.48743,-11.84875 3.44788,-15.71228 1.21582,-2.39623 2.74292,-4.12781 4.59412,-4.98107 1.80236,-0.83191 3.99535,-0.84413 6.60949,0.16112 3.2428,1.24818 7.06177,4.00269 11.49536,8.59803 0,0 0,0 0,0 z"
       style="fill:#008000;fill-opacity:1;fill-rule:nonzero;stroke:none"
       id="path210-1" />
    <path
       inkscape:connector-curvature="0"
       d="m 618.20484,880.35377 c 1.38916,-1.58387 2.81311,-3.07678 4.05274,-4.19007 0.75011,-0.67382 1.35497,-1.20117 1.71447,-1.48926 0.0842,0.39246 0.16785,0.98939 0.25024,1.745 0.14039,1.30433 0.19044,2.93701 0.15199,4.75525 -1.06813,-0.23865 -2.21803,-0.42541 -3.44971,-0.55176 -0.92895,-0.0959 -1.83533,-0.18554 -2.71973,-0.26916 0,0 0,0 0,0 z"
       style="fill:#ffffff;fill-opacity:1;fill-rule:nonzero;stroke:none"
       id="path212-5" />
    <path
       inkscape:connector-curvature="0"
       d="m 605.22205,879.29359 c 0.75379,-1.74744 1.54297,-3.37647 2.27905,-4.61915 0.35095,-0.5896 0.63294,-1.06079 0.81788,-1.35925 0.22887,0.37903 0.53284,0.98694 0.8905,1.76636 0.57312,1.25794 1.16639,2.85584 1.72912,4.65454 -0.90637,-0.0714 -1.79443,-0.13916 -2.66906,-0.20569 -1.03394,-0.0794 -2.04834,-0.15808 -3.04749,-0.23681 0,0 0,0 0,0 z"
       style="fill:#ffffff;fill-opacity:1;fill-rule:nonzero;stroke:none"
       id="path214-7" />
    <path
       inkscape:connector-curvature="0"
       d="m 593.64734,878.10584 c 0.78796,-1.85364 1.61866,-3.59436 2.39441,-4.9115 0.36622,-0.62377 0.66284,-1.11877 0.85328,-1.42761 0.25024,0.41077 0.58532,1.09254 0.97961,1.97449 0.61035,1.3678 1.23901,3.11523 1.82984,5.07385 -2.01905,-0.19775 -4.01918,-0.42542 -6.05714,-0.70923 0,0 0,0 0,0 z"
       style="fill:#ffffff;fill-opacity:1;fill-rule:nonzero;stroke:none"
       id="path216-7" />
    <path
       inkscape:connector-curvature="0"
       d="m 579.1405,875.13648 c 0.77394,-1.79809 1.58265,-3.46253 2.32667,-4.70093 0.32837,-0.54687 0.59205,-0.98266 0.766,-1.26403 0.27098,0.4425 0.6372,1.19507 1.06383,2.1759 0.62257,1.42822 1.25915,3.23913 1.85487,5.25146 -1.91224,-0.41443 -3.90443,-0.89599 -6.01137,-1.4624 0,0 0,0 0,0 z"
       style="fill:#ffffff;fill-opacity:1;fill-rule:nonzero;stroke:none"
       id="path218-8" />
    <path
       inkscape:connector-curvature="0"
       d="m 569.74049,871.73865 c 1.16943,-1.44836 2.31323,-2.74352 3.28246,-3.656 0.39918,-0.37597 0.72449,-0.67932 0.94605,-0.88562 0.11538,0.41137 0.24292,1.03882 0.37842,1.83289 0.22827,1.34155 0.38208,3.01391 0.46142,4.87 -0.4132,-0.12388 -0.82885,-0.25208 -1.25061,-0.3827 -1.29883,-0.40405 -2.56896,-1.01074 -3.81774,-1.77857 0,0 0,0 0,0 z"
       style="fill:#ffffff;fill-opacity:1;fill-rule:nonzero;stroke:none"
       id="path220-7" />
    <path
       inkscape:connector-curvature="0"
       d="m 472.1471,830.57654 c -2.33826,0.57374 -3.95507,2.23145 -3.62793,3.75916 0.33875,1.5686 2.60742,2.42004 5.05371,1.89332 1.05164,-0.22645 1.96961,-0.67262 2.64649,-1.2317 -0.0659,0.0165 -0.13184,0.0311 -0.19898,0.0457 -2.44506,0.52733 -4.71435,-0.32472 -5.0531,-1.89332 -0.19165,-0.89416 0.28259,-1.8335 1.17981,-2.57325 0,0 0,0 0,0 z m -45.74828,28.3606 c -2.90773,1.18286 -4.6576,3.66944 -3.90015,5.5365 0.75988,1.86463 3.75,2.4237 6.65893,1.23963 0.6195,-0.2533 1.18653,-0.56397 1.68884,-0.91614 -2.65259,0.80689 -5.20507,0.19409 -5.89905,-1.51001 -0.59631,-1.4679 0.3595,-3.31909 2.21009,-4.61853 -0.25269,0.0769 -0.50538,0.16479 -0.75866,0.26855 0,0 0,0 0,0 z m 19.94811,-0.99121 c -3.49915,1.14624 -5.75318,3.90686 -5.0238,6.15601 0.7312,2.25525 4.19495,3.16528 7.70935,2.02393 0.92224,-0.29847 1.75781,-0.70924 2.47925,-1.19508 -0.0113,0.004 -0.022,0.007 -0.0311,0.01 -3.5144,1.14136 -6.97753,0.23133 -7.70873,-2.02452 -0.53955,-1.66444 0.55298,-3.60779 2.57507,-4.9701 0,0 0,0 0,0 z m -3.9386,-12.51648 c -3.08289,2.03674 -4.53064,5.30945 -3.22449,7.28882 1.30615,1.97876 4.88587,1.93237 7.96998,-0.10438 0.004,-0.003 0.008,-0.005 0.0127,-0.009 -2.34314,0.7489 -4.56481,0.39551 -5.53405,-1.07239 -1.30555,-1.97631 0.13671,-5.24292 3.20861,-7.27905 -0.81115,0.26002 -1.63879,0.65124 -2.43286,1.17554 0,0 0,0 0,0 z m 17.2815,-4.94507 c -3.08411,2.03614 -4.53248,5.30945 -3.22571,7.28882 1.30676,1.97877 4.88647,1.93238 7.96936,-0.10437 0.005,-10e-4 0.007,-0.005 0.0125,-0.008 -2.34193,0.74891 -4.5636,0.39551 -5.53284,-1.0736 -1.30432,-1.9751 0.13672,-5.2417 3.20984,-7.27905 -0.8136,0.26 -1.64001,0.65124 -2.43286,1.17614 0,0 0,0 0,0 z m 5.5365,14.64539 c -3.46558,1.28357 -5.61767,4.14428 -4.7937,6.36841 0.82275,2.2229 4.32067,2.9895 7.78442,1.70532 0.76661,-0.28503 1.46973,-0.64515 2.09045,-1.05957 -3.34533,1.10351 -6.63208,0.31432 -7.42676,-1.83228 -0.64208,-1.73096 0.52124,-3.84826 2.70325,-5.3064 -0.11962,0.0396 -0.23926,0.08 -0.35766,0.1245 0,0 0,0 0,0 z m 11.56127,-14.86755 c -2.69165,0.81542 -4.52881,2.66235 -4.32861,4.59472 0.24475,2.3584 3.44178,3.97034 7.1167,3.58886 1.71204,-0.177 3.23303,-0.75743 4.34509,-1.56432 -0.59509,0.17944 -1.23107,0.30945 -1.89696,0.37902 -3.67433,0.38148 -6.87135,-1.23107 -7.1167,-3.58947 -0.13063,-1.25915 0.60668,-2.48291 1.88048,-3.40881 0,0 0,0 0,0 z m 11.89332,-11.922 c -2.69104,0.81543 -4.53003,2.66296 -4.32984,4.59472 0.24536,2.35779 3.44177,3.97095 7.1167,3.58888 1.71204,-0.17762 3.23425,-0.75684 4.3451,-1.56495 -0.59571,0.18066 -1.23048,0.31006 -1.89636,0.37903 -3.67494,0.38208 -6.87195,-1.23108 -7.1167,-3.58887 -0.13002,-1.25976 0.60668,-2.48351 1.8811,-3.40881 0,0 0,0 0,0 z m 8.62426,11.34277 c -2.83081,0.90943 -4.76684,2.82288 -4.67468,4.94324 0.12088,2.83325 3.8208,4.99085 8.2373,4.80102 2.1936,-0.0934 4.16017,-0.7489 5.57008,-1.73217 -0.95215,0.307 -2.00745,0.49987 -3.12195,0.54749 -4.41529,0.1892 -8.11646,-1.969 -8.23853,-4.80287 -0.0604,-1.42638 0.79712,-2.7594 2.22778,-3.75671 0,0 0,0 0,0 z m 10.77332,-15.15686 c -3.07435,1.01624 -5.1471,3.17077 -4.9115,5.41809 0.2954,2.82227 4.12293,4.74732 8.51868,4.2859 1.93847,-0.20264 3.67004,-0.83619 4.97802,-1.72425 -0.78491,0.26062 -1.63513,0.44433 -2.52991,0.53893 -4.39696,0.46083 -8.22265,-1.46422 -8.51867,-4.28588 -0.1654,-1.57715 0.80506,-3.10792 2.46338,-4.23279 0,0 0,0 0,0 z m -143.94531,54.25599 c -2.50122,0.6958 -4.21997,2.4237 -3.97584,4.15527 0.28138,1.97998 3.02613,3.23913 6.11207,2.80211 1.41296,-0.20018 2.65807,-0.72265 3.5669,-1.41906 -0.35829,0.0995 -0.73182,0.17823 -1.11878,0.23315 -3.08655,0.43763 -5.8307,-0.82152 -6.11206,-2.80151 -0.15198,-1.0736 0.45166,-2.14478 1.52771,-2.96996 0,0 0,0 0,0 z m 16.10718,-3.82874 c -2.10572,0.4718 -3.59803,1.87987 -3.39967,3.29162 0.2179,1.52833 2.33399,2.49878 4.71619,2.16125 1.21338,-0.1709 2.26624,-0.65246 2.97974,-1.28295 -0.17273,0.0385 -0.35095,0.072 -0.53101,0.097 -2.3822,0.33753 -4.4989,-0.63415 -4.71618,-2.16125 -0.1056,-0.74951 0.2655,-1.49718 0.95093,-2.10571 0,0 0,0 0,0 z m 12.44567,-4.59411 c -3.24524,1.31957 -5.19959,4.09545 -4.35241,6.1792 0.84716,2.08128 4.18274,2.70385 7.42859,1.38305 0.63903,-0.26002 1.22802,-0.57679 1.75597,-0.93384 -3.01574,0.9729 -5.95031,0.29907 -6.73706,-1.63453 -0.67993,-1.67236 0.44434,-3.7915 2.594,-5.24475 -0.2301,0.0739 -0.4596,0.15748 -0.68909,0.25087 0,0 0,0 0,0 z"
       style="fill:#231f20;fill-opacity:1;fill-rule:evenodd;stroke:none"
       id="path222-3" />
  </g>
</svg>
