<?xml version="1.0" encoding="UTF-8" standalone="no"?>
<!-- Created with Inkscape (http://www.inkscape.org/) -->

<svg
   xmlns:dc="http://purl.org/dc/elements/1.1/"
   xmlns:cc="http://creativecommons.org/ns#"
   xmlns:rdf="http://www.w3.org/1999/02/22-rdf-syntax-ns#"
   xmlns:svg="http://www.w3.org/2000/svg"
   xmlns="http://www.w3.org/2000/svg"
   xmlns:sodipodi="http://sodipodi.sourceforge.net/DTD/sodipodi-0.dtd"
   xmlns:inkscape="http://www.inkscape.org/namespaces/inkscape"
   id="svg2"
   version="1.1"
   inkscape:version="0.48.4 r9939"
   width="96"
   height="96"
   sodipodi:docname="ic_launcher.svg">
  <metadata
     id="metadata8">
    <rdf:RDF>
      <cc:Work
         rdf:about="">
        <dc:format>image/svg+xml</dc:format>
        <dc:type
           rdf:resource="http://purl.org/dc/dcmitype/StillImage" />
        <dc:title />
      </cc:Work>
    </rdf:RDF>
  </metadata>
  <defs
     id="defs6" />
  <sodipodi:namedview
     pagecolor="#ffffff"
     bordercolor="#666666"
     borderopacity="1"
     objecttolerance="10"
     gridtolerance="10"
     guidetolerance="10"
     inkscape:pageopacity="0"
     inkscape:pageshadow="2"
     inkscape:window-width="1879"
     inkscape:window-height="1058"
     id="namedview4"
     showgrid="false"
     inkscape:zoom="9.8333332"
     inkscape:cx="18.903091"
     inkscape:cy="63.837553"
     inkscape:window-x="41"
     inkscape:window-y="0"
     inkscape:window-maximized="1"
     inkscape:current-layer="svg2" />
  <path
     style="fill:#808f0e;fill-opacity:1;stroke:#000000;stroke-width:1px;stroke-linecap:butt;stroke-linejoin:miter;stroke-opacity:1"
     d="M 18.264928,58.17578 C 15.398019,50.846324 24.595132,42.690378 30.201849,42.355763 31.717573,37.498469 29.772833,33.476459 41.707315,26.104292 34.374931,32.326919 31.684097,25.104316 42.13877,19.488649 43.25249,1.7228747 56.389207,6.7902254 59.828425,13.879734 c 6.339315,-10.5535593 13.881406,-3.218441 17.97729,2.301094 0.234517,4.936034 -1.327206,8.650112 -2.444911,13.231286 11.636928,-0.952512 17.1244,2.919821 17.977291,12.08074 -0.854563,4.844666 -1.570671,9.735483 -6.90328,13.087467 -2.54677,1.330346 -5.274814,2.298142 -6.184188,6.90328 -4.314549,1.408539 -7.190916,1.560531 -12.512194,3.020185 C 62.494679,59.692348 51.215575,63.344349 42.714044,70.687974 37.529139,75.207431 33.922916,81.174015 24.449116,81.761985 19.330361,82.375129 16.886303,78.785179 14.381833,75.290161 9.4839561,74.202319 6.6621253,69.308392 4.0269132,64.072331 4.5098077,56.106881 7.4919652,51.658912 18.264928,58.17578 z"
     id="path2987"
     inkscape:connector-curvature="0"
     sodipodi:nodetypes="cccccccccccccccc" />
  <path
     sodipodi:type="arc"
     style="fill:#e4df7c;fill-opacity:1;stroke:#000000;stroke-opacity:1"
     id="path2989"
     sodipodi:cx="51.70269"
     sodipodi:cy="19.488649"
     sodipodi:rx="5.9684606"
     sodipodi:ry="8.1976442"
     d="m 57.671151,19.488649 a 5.9684606,8.1976442 0 1 1 -11.936921,0 5.9684606,8.1976442 0 1 1 11.936921,0 z"
     transform="translate(-0.71909164,0.14381833)" />
  <path
     sodipodi:type="arc"
     style="fill:#e4df7c;stroke:#000000;stroke-opacity:1;fill-opacity:1"
     id="path2991"
     sodipodi:cx="68.385612"
     sodipodi:cy="24.450382"
     sodipodi:rx="5.1055508"
     sodipodi:ry="8.413372"
     d="m 73.491163,24.450382 a 5.1055508,8.413372 0 1 1 -10.211101,0 5.1055508,8.413372 0 1 1 10.211101,0 z"
     transform="translate(-1.1505466,0)" />
  <path
     style="fill:none;stroke:#000000;stroke-width:1.7;stroke-linecap:butt;stroke-linejoin:miter;stroke-opacity:1;stroke-miterlimit:4;stroke-dasharray:none"
     d="m 35.23549,42.499582 c 4.626397,0.215487 8.574953,1.108815 9.779647,4.746005"
     id="path3761"
     inkscape:connector-curvature="0"
     sodipodi:nodetypes="cc" />
  <path
     style="fill:#000000;fill-opacity:1;stroke:none"
     d="m 18.408746,65.07906 c 1.29728,-7.567073 8.484094,-6.642902 16.344443,-2.453635 l -0.78635,0.563224 -2.03917,-0.554501 0.310252,2.190781 -0.597889,0.397949 C 25.790321,56.539246 19.339582,62.351137 18.408746,65.07906 z"
     id="path3763"
     inkscape:connector-curvature="0"
     sodipodi:nodetypes="ccccccc" />
  <path
     style="fill:#000000;fill-opacity:1;stroke:none"
     d="m 5.6089148,59.470145 c 1.8587308,2.808262 1.4119788,7.853513 1.1301049,9.056321 0.050382,-1.491976 2.4629789,-3.679734 4.2507453,-1.47308 -0.345418,-2.706379 -3.2558612,-5.89376 -5.3808502,-7.583241 z"
     id="path3765"
     inkscape:connector-curvature="0"
     sodipodi:nodetypes="cccc" />
  <path
     sodipodi:type="arc"
     style="fill:#000000;fill-opacity:1;stroke:#000000;stroke-width:0.2;stroke-linecap:round;stroke-linejoin:miter;stroke-miterlimit:4;stroke-opacity:1;stroke-dasharray:none;stroke-dashoffset:0"
     id="path3767"
     sodipodi:cx="67.594612"
     sodipodi:cy="24.5942"
     sodipodi:rx="2.0134566"
     sodipodi:ry="7.4066439"
     d="m 69.608069,24.5942 a 2.0134566,7.4066439 0 1 1 -5.38e-4,-0.171146"
     sodipodi:start="0"
     sodipodi:end="6.2600761"
     sodipodi:open="true"
     transform="matrix(1.3491821,0,0,0.99783593,-24.034287,0.34086041)" />
  <path
     sodipodi:type="arc"
     style="fill:#000000;fill-opacity:1;stroke:#000000;stroke-width:0.2;stroke-linecap:round;stroke-linejoin:miter;stroke-miterlimit:4;stroke-opacity:1;stroke-dasharray:none;stroke-dashoffset:0"
     id="path3769"
     sodipodi:cx="51.70269"
     sodipodi:cy="20.063923"
     sodipodi:rx="2.660639"
     sodipodi:ry="7.3347349"
     d="m 54.363329,20.063923 a 2.660639,7.3347349 0 1 1 -7.1e-4,-0.169485"
     sodipodi:start="0"
     sodipodi:end="6.2600761"
     sodipodi:open="true"
     transform="translate(-0.57527331,0.28763666)" />
  <path
     sodipodi:type="arc"
     style="fill:#ffffff;fill-opacity:1;stroke:none"
     id="path3771"
     sodipodi:cx="52.565598"
     sodipodi:cy="15.030281"
     sodipodi:rx="1.7977291"
     sodipodi:ry="2.4449115"
     d="m 54.363327,15.030281 a 1.7977291,2.4449115 0 1 1 -4.8e-4,-0.05649"
     sodipodi:start="0"
     sodipodi:end="6.2600761"
     sodipodi:open="true"
     transform="matrix(0.88,0,0,0.9117647,6.0921442,1.5419288)" />
  <path
     sodipodi:type="arc"
     style="fill:#ffffff;fill-opacity:1;stroke:none"
     id="path3773"
     sodipodi:cx="68.888977"
     sodipodi:cy="19.488649"
     sodipodi:rx="1.4381833"
     sodipodi:ry="2.0134566"
     d="m 70.32716,19.488649 a 1.4381833,2.0134566 0 1 1 -3.84e-4,-0.04652"
     sodipodi:start="0"
     sodipodi:end="6.2600761"
     sodipodi:open="true"
     transform="matrix(1.1414213,0,0,1.1010153,-9.9704377,-2.1720407)" />
  <path
     style="fill:#808f0e;fill-opacity:1;stroke:#000000;stroke-width:1px;stroke-linecap:butt;stroke-linejoin:miter;stroke-opacity:1"
     d="m 76.858559,24.859278 c 3.03113,1.024733 2.987258,2.423517 3.392068,4.121381 l -5.17746,0.575273 z"
     id="path3777"
     inkscape:connector-curvature="0"
     sodipodi:nodetypes="cccc" />
  <path
     style="fill:#e4da15;fill-opacity:1;stroke:none"
     d="m 82.120266,46.526495 c -1.708547,5.355824 -3.878289,12.23417 -6.615644,15.532379 l -7.334734,1.869639 C 60.451637,59.282227 50.432294,63.365362 41.563497,71.550884 23.39982,90.072619 16.75546,77.727433 14.813288,75.433979 22.063104,73.553381 23.546898,77.438804 45.015137,61.339783 55.319198,51.16453 66.87505,48.719882 82.120266,46.526495 z"
     id="path3779"
     inkscape:connector-curvature="0"
     sodipodi:nodetypes="ccccccc" />
  <path
     style="fill:#000000;fill-opacity:1;stroke:none"
     d="m 14.835846,75.872041 c 1.08618,0.34373 -1.273983,-1.162537 -0.23903,-1.100642 12.364002,0.73943 23.591539,-8.645408 31.568867,-15.301254 14.690648,-11.907219 16.154053,-8.030792 34.588309,-14.094197 0.157319,-1.616171 -1.359244,-1.473447 -3.595459,-1.366274 2.948658,-1.942545 4.153765,-4.352512 4.350506,-8.08978 2.150301,3.004194 3.03111,10.913975 1.875806,13.512754 -0.828756,1.74427 -2.070894,3.612848 -3.870758,3.653971 -0.371004,-1.578502 1.228279,-3.44212 1.383723,-5.337668 -3.640524,2.013473 -10.201802,3.060367 -18.054551,4.223889 -7.322883,1.085013 -11.517978,4.47218 -16.151653,8.532323 -9.944828,6.926731 -16.394877,15.037248 -31.85576,15.366878 z"
     id="path3775"
     inkscape:connector-curvature="0"
     sodipodi:nodetypes="cscccccccscc" />
  <path
     style="fill:#000000;fill-opacity:1;stroke:none"
     d="m 20.709839,72.269976 c -0.150458,-3.691337 -0.309699,-7.382674 0.287637,-11.074011 4.026084,2.240068 4.661841,3.85162 5.321278,5.752733 -1.562935,0.08684 -2.052038,-2.016537 -4.170731,-1.438184 -1.158,1.559674 -0.861918,4.554723 -1.438184,6.759462 z"
     id="path3781"
     inkscape:connector-curvature="0"
     sodipodi:nodetypes="ccccc" />
</svg>
