<?xml version="1.0" encoding="UTF-8" standalone="no"?>
<!-- Created with Inkscape (http://www.inkscape.org/) -->

<svg
   xmlns:dc="http://purl.org/dc/elements/1.1/"
   xmlns:cc="http://creativecommons.org/ns#"
   xmlns:rdf="http://www.w3.org/1999/02/22-rdf-syntax-ns#"
   xmlns:svg="http://www.w3.org/2000/svg"
   xmlns="http://www.w3.org/2000/svg"
   xmlns:sodipodi="http://sodipodi.sourceforge.net/DTD/sodipodi-0.dtd"
   xmlns:inkscape="http://www.inkscape.org/namespaces/inkscape"
   width="300"
   height="200"
   id="svg3568"
   version="1.1"
   inkscape:version="0.48.4 r9939"
   sodipodi:docname="z.svg">
  <defs
     id="defs3570" />
  <sodipodi:namedview
     id="base"
     pagecolor="#ffffff"
     bordercolor="#666666"
     borderopacity="1.0"
     inkscape:pageopacity="0.0"
     inkscape:pageshadow="2"
     inkscape:zoom="0.70710678"
     inkscape:cx="170.17842"
     inkscape:cy="165.06854"
     inkscape:document-units="px"
     inkscape:current-layer="layer1"
     showgrid="false"
     width="850px"
     inkscape:window-width="1879"
     inkscape:window-height="1058"
     inkscape:window-x="41"
     inkscape:window-y="0"
     inkscape:window-maximized="1"
     fit-margin-left="-1" />
  <metadata
     id="metadata3573">
    <rdf:RDF>
      <cc:Work
         rdf:about="">
        <dc:format>image/svg+xml</dc:format>
        <dc:type
           rdf:resource="http://purl.org/dc/dcmitype/StillImage" />
        <dc:title></dc:title>
      </cc:Work>
    </rdf:RDF>
  </metadata>
  <g
     inkscape:label="Ebene 1"
     inkscape:groupmode="layer"
     id="layer1"
     transform="translate(0,-852.36212)">
    <path
       style="fill:#d40000;stroke:none"
       d="m 95.498496,948.04111 c 0.62974,-16.59654 33.749484,-34.33202 71.064234,-32.88047 26.54153,0.0954 39.33723,12.51468 38.53732,37.12311 -6.77633,35.05179 -35.2094,34.37609 -50.91168,32.52689 -47.54449,-7.4136 -59.947505,-20.90939 -58.689874,-36.76953 z"
       id="path4640-56"
       inkscape:connector-curvature="0"
       sodipodi:nodetypes="ccccc" />
    <path
       inkscape:connector-curvature="0"
       d="m 132.41974,976.96777 c -8.34534,-2.31201 -30.46143,-10.9143 -33.129884,-22.97362 -0.0214,-0.0976 -0.0623,-0.2417 -0.0915,-0.33814 -0.0671,-0.21485 -1.59057,-5.34546 2.453614,-11.80786 4.83583,-7.73072 18.0896,-18.09083 53.7677,-23.54493 0.0402,-0.006 0.0842,-0.0134 0.12325,-0.022 0.22949,-0.0428 23.08715,-4.16504 36.57959,7.20094 6.86157,5.78002 10.25268,14.78515 10.07751,26.76147 -0.004,0.105 -0.53711,14.22119 -12.43775,22.88697 -12.07275,8.79264 -31.36596,9.41034 -57.34252,1.83715 0,0 0,0 0,0 z m 21.83471,-65.79834 c -31.04186,4.75708 -50.86975,13.89527 -58.930664,27.16675 -2.942501,4.84619 -3.668221,9.3042 -3.668221,12.52198 0,2.83325 0.55665,4.68627 0.66345,5.01831 4.454351,18.54736 36.747445,27.66357 38.128075,28.04437 28.26232,8.241 49.70275,7.2278 63.67613,-3.0248 14.76136,-10.82891 15.2887,-27.80644 15.30396,-28.52299 0.20874,-14.29078 -4.05701,-25.19775 -12.677,-32.44385 -16.01746,-13.46192 -41.05529,-9.02954 -42.49573,-8.75977 0,0 0,0 0,0 z"
       style="fill:#231f20;fill-opacity:1;fill-rule:nonzero;stroke:none"
       id="path504-70" />
    <path
       inkscape:connector-curvature="0"
       d="m 102.98126,947.95288 c 0,0 6.31653,-16.84448 25.26673,-18.42407 0,0 -20.00244,8.94897 -17.37062,18.42407 0,0 -7.89611,0 -7.89611,0 0,0 0,0 0,0 z"
       style="fill:#231f20;fill-opacity:1;fill-rule:nonzero;stroke:none"
       id="path506-6" />
  </g>
</svg>
